<?xml version="1.0" standalone="no"?>
<!DOCTYPE svg PUBLIC "-//W3C//DTD SVG 20010904//EN"
 "http://www.w3.org/TR/2001/REC-SVG-20010904/DTD/svg10.dtd">
<svg version="1.0" xmlns="http://www.w3.org/2000/svg"
 width="380.000000pt" height="501.000000pt" viewBox="0 0 380.000000 501.000000"
 preserveAspectRatio="xMidYMid meet">

<g transform="translate(0.000000,501.000000) scale(0.100000,-0.100000)"
fill="#000000" stroke="none">
<path d="M1791 4881 c-6 -10 -7 -22 -3 -26 4 -4 -5 -5 -20 -3 -19 4 -28 1 -28
-8 0 -14 -6 -16 -70 -18 -27 -1 -35 -5 -33 -19 1 -14 -4 -17 -20 -13 -12 2
-35 8 -51 12 -18 4 -27 3 -23 -3 8 -12 -35 -93 -68 -129 -14 -15 -25 -30 -25
-35 0 -4 -9 -11 -21 -14 -16 -5 -18 -10 -8 -21 6 -8 8 -14 3 -14 -5 0 -17 -14
-26 -31 -10 -17 -12 -27 -5 -23 8 6 8 3 -1 -8 -8 -9 -12 -25 -11 -35 1 -10 -1
-25 -4 -33 -6 -15 -17 -117 -16 -155 1 -89 18 -168 46 -210 19 -28 16 -37 -7
-23 -54 34 -67 -76 -27 -229 32 -122 48 -147 93 -140 32 5 34 4 41 -31 9 -41
8 -423 -2 -459 -4 -16 -13 -23 -29 -23 -31 0 -102 -52 -122 -91 -33 -65 18
-171 136 -282 67 -64 214 -162 258 -173 34 -9 26 -22 -20 -35 l-43 -11 35 -19
c49 -26 75 -24 192 15 341 112 551 283 573 467 5 39 2 48 -23 74 -35 37 -92
79 -92 67 0 -4 5 -13 10 -18 7 -7 4 -10 -9 -9 -12 1 -24 5 -28 10 -5 4 -2 5 5
1 6 -4 12 -2 12 3 0 6 -3 11 -7 11 -10 0 -40 -20 -31 -20 4 0 3 -12 -3 -27 -9
-23 -19 -149 -19 -239 0 -12 -12 -32 -27 -45 -14 -13 -23 -18 -19 -12 5 9 2
11 -9 7 -9 -4 -13 -9 -11 -12 7 -6 -41 -48 -74 -65 -16 -8 -36 -10 -53 -6 -20
6 -30 4 -34 -7 -10 -27 -23 -14 -23 24 0 20 -4 42 -8 48 -15 24 -101 27 -87 4
11 -17 -16 -21 -37 -6 -26 18 -48 21 -48 6 0 -5 7 -10 15 -10 8 0 14 -6 13
-12 -2 -9 9 -13 32 -12 22 0 38 -5 44 -15 8 -13 10 -12 17 4 6 15 8 16 8 4 1
-23 -41 -82 -69 -96 -30 -15 -54 -3 -75 37 -9 17 -20 30 -25 30 -14 0 -21 -18
-10 -25 13 -8 13 -25 1 -25 -12 0 -31 57 -41 123 -4 29 -11 60 -15 69 -10 24
22 36 38 15 15 -19 125 -48 133 -35 3 5 -3 12 -13 14 -33 9 -72 94 -43 94 6 0
10 9 10 19 0 11 9 26 20 34 19 13 19 14 -6 67 l-25 54 24 22 c29 27 126 42
138 22 6 -9 12 -8 27 5 10 9 23 17 28 17 5 0 2 -5 -6 -10 -13 -9 -13 -10 0
-10 21 0 40 20 40 40 0 9 11 27 25 40 14 13 25 29 25 36 0 6 15 25 33 41 17
16 38 39 44 51 l13 22 -33 -20 c-17 -11 -39 -23 -48 -26 -9 -3 -21 -15 -27
-27 -6 -12 -11 -16 -11 -9 -1 7 11 24 25 37 25 23 25 24 5 35 -14 7 -21 7 -21
0 0 -5 -7 -10 -16 -10 -12 0 -15 -7 -12 -25 6 -27 -14 -51 -33 -40 -6 4 -15 1
-20 -6 -7 -11 -9 -10 -9 5 0 15 -3 16 -15 6 -10 -9 -15 -9 -15 -1 0 18 -18 13
-23 -6 -4 -14 -5 -13 -6 4 -1 28 -59 86 -78 79 -11 -5 -11 -1 -2 16 8 15 13
17 19 8 5 -9 9 -9 14 -1 4 6 10 9 14 7 4 -2 13 2 20 10 11 12 6 14 -33 14 -34
0 -44 3 -38 13 4 6 9 20 10 31 2 10 7 25 12 34 8 14 11 13 22 -10 6 -15 19
-30 27 -33 16 -6 82 34 82 50 0 6 5 3 10 -5 8 -13 11 -12 24 5 35 47 39 62 25
94 -8 17 -18 31 -22 31 -5 0 -5 5 -2 10 3 6 -7 18 -24 28 -17 9 -31 20 -31 25
0 7 -52 2 -109 -9 -20 -4 -23 -2 -18 16 4 15 2 20 -7 17 -6 -3 -20 2 -31 9
-18 13 -18 16 -3 57 10 26 21 41 29 38 8 -2 40 -9 71 -15 60 -13 60 -13 26 37
-11 15 -16 27 -11 27 4 0 -3 9 -17 20 -14 11 -19 20 -12 20 6 0 12 7 12 15 0
17 16 20 25 5 3 -5 16 -10 27 -10 l21 0 -22 24 c-16 17 -19 25 -9 28 7 3 20
-3 28 -13 14 -15 18 -15 35 -3 17 13 18 16 5 24 -8 5 -21 10 -27 10 -19 0 -16
17 3 24 9 4 17 5 18 4 18 -47 55 -57 71 -20 5 12 14 21 19 19 22 -7 14 -23
-22 -44 l-37 -22 37 -1 c27 0 40 5 48 20 13 24 32 27 23 3 -6 -15 -4 -14 14 2
36 35 35 51 -5 70 -35 18 -165 37 -156 24 4 -7 -31 -19 -56 -19 -13 0 -13 1 0
10 24 15 1 12 -36 -6 -19 -9 -34 -21 -34 -26 0 -5 -15 -8 -32 -6 -22 2 -33 8
-33 19 0 29 -63 109 -87 109 -4 0 -8 8 -8 19 0 20 24 28 109 36 25 3 63 12 86
20 45 18 79 11 116 -23 20 -19 19 -19 -40 -36 -40 -11 -64 -24 -75 -41 -16
-24 -15 -26 0 -32 9 -3 53 1 98 9 55 11 85 13 93 6 7 -6 25 -8 39 -5 18 3 33
-2 46 -15 11 -11 22 -17 26 -14 12 12 -14 61 -38 73 -14 7 -19 13 -12 13 7 0
20 7 28 15 9 8 11 15 6 15 -16 0 -22 41 -6 47 8 3 14 15 15 27 1 19 2 18 8 -4
5 -14 16 -40 25 -58 9 -17 14 -32 11 -32 -3 0 4 -9 15 -20 15 -15 20 -35 22
-77 1 -32 3 -69 4 -83 3 -55 3 -54 21 -39 9 8 18 13 20 12 11 -9 45 0 50 12 9
24 -3 28 -29 11 -25 -17 -44 -11 -30 8 5 6 16 44 26 83 14 56 17 96 13 177 -3
57 -10 113 -16 125 -7 12 -11 27 -10 34 2 6 -1 31 -5 55 -6 33 -14 45 -33 53
-16 6 -23 15 -19 24 3 8 -2 19 -11 24 -14 7 -15 12 -4 25 15 18 5 40 -15 32
-20 -8 -44 4 -44 20 0 9 -12 14 -36 14 -28 0 -35 3 -30 15 3 9 -2 20 -13 27
-10 6 -16 19 -14 28 8 30 -16 32 -40 4 -21 -24 -25 -25 -45 -13 -12 8 -22 18
-22 24 0 5 -12 18 -26 29 -25 18 -26 18 -50 -5 -24 -22 -24 -22 -39 -3 -8 10
-15 22 -15 26 0 12 -54 -11 -67 -28 -6 -9 -17 -13 -23 -9 -9 6 -9 10 1 16 10
6 6 9 -12 9 -15 0 -29 7 -33 15 -7 20 -23 19 -35 -4z m209 -389 c0 -4 15 -8
34 -9 37 -1 56 -9 56 -22 0 -12 -39 -21 -46 -10 -3 5 -15 9 -27 9 -18 0 -19
-2 -7 -10 13 -9 13 -11 0 -20 -8 -5 -20 -10 -26 -10 -7 0 -14 -7 -18 -15 -3
-8 -16 -15 -28 -15 -17 0 -19 3 -9 9 9 6 10 11 2 15 -6 4 -9 11 -6 15 2 5 -2
17 -9 27 -13 17 -11 20 17 30 39 14 67 17 67 6z m-210 -232 c0 -5 -4 -10 -10
-10 -5 0 -10 5 -10 10 0 6 5 10 10 10 6 0 10 -4 10 -10z m-15 -115 l30 -25
-28 10 c-16 5 -44 10 -62 10 -26 0 -33 3 -29 15 9 23 56 18 89 -10z m390 -5
c3 -5 2 -10 -4 -10 -5 0 -13 5 -16 10 -3 6 -2 10 4 10 5 0 13 -4 16 -10z
m-142 -46 c-7 -18 -33 -18 -33 -1 0 19 10 27 25 20 8 -2 11 -11 8 -19z m-253
-14 c0 -4 -9 -10 -20 -13 -22 -6 -23 -5 -14 17 6 14 34 12 34 -4z m-110 -10
c0 -5 -2 -10 -4 -10 -3 0 -8 5 -11 10 -3 6 -1 10 4 10 6 0 11 -4 11 -10z m150
-14 c0 -2 -10 -10 -23 -18 -16 -12 -28 -13 -47 -5 l-25 10 25 7 c27 9 70 12
70 6z m-42 -144 c13 11 14 11 6 -2 -5 -8 -20 -32 -33 -52 -23 -37 -44 -48 -56
-28 -11 19 6 50 27 50 12 0 18 3 15 7 -4 3 -1 13 5 21 8 10 13 11 16 3 3 -9 8
-8 20 1z m316 -211 c4 -5 -3 -7 -14 -4 -23 6 -26 13 -6 13 8 0 17 -4 20 -9z
m-55 -42 c36 -13 41 -26 9 -28 -13 0 -71 -3 -130 -6 -64 -2 -110 0 -113 5 -9
14 8 19 95 29 107 12 104 12 139 0z m-124 -99 c0 -7 -6 -15 -12 -17 -8 -3 -13
4 -13 17 0 13 5 20 13 18 6 -3 12 -11 12 -18z m484 -446 c8 -16 18 -30 22 -32
11 -4 -6 -47 -33 -85 l-22 -30 -17 51 c-13 37 -15 60 -9 82 17 60 35 64 59 14z
m-937 -86 c13 -13 25 -36 27 -53 3 -26 1 -28 -14 -15 -26 22 -57 90 -41 90 3
0 15 -10 28 -22z m547 -189 c-7 -4 -17 -5 -22 -2 -5 3 -3 9 4 14 7 4 17 5 22
2 5 -3 3 -9 -4 -14z m-155 -144 c11 -8 16 -15 10 -15 -5 0 -18 7 -28 15 -11 8
-16 15 -10 15 5 0 18 -7 28 -15z"/>
<path d="M1456 2987 c3 -10 9 -15 12 -12 3 3 0 11 -7 18 -10 9 -11 8 -5 -6z"/>
<path d="M2198 4173 c7 -3 16 -2 19 1 4 3 -2 6 -13 5 -11 0 -14 -3 -6 -6z"/>
<path d="M2410 3865 c12 -14 11 -18 -1 -26 -8 -5 -20 -9 -28 -9 -8 0 -12 -2
-9 -5 9 -9 67 7 72 20 2 7 -7 18 -21 24 -24 11 -25 11 -13 -4z"/>
<path d="M1965 3840 c-4 -6 8 -10 27 -11 31 0 32 -1 11 -11 -20 -10 -32 -28
-18 -28 10 0 55 24 55 30 0 25 -62 41 -75 20z"/>
<path d="M2156 3755 c22 -65 33 -90 43 -93 14 -5 15 15 1 23 -5 3 -10 15 -10
26 0 10 -4 19 -8 19 -5 0 -14 10 -21 23 -9 16 -10 17 -5 2z"/>
<path d="M2222 3691 c4 -13 18 -16 19 -4 0 4 -5 9 -11 12 -7 2 -11 -2 -8 -8z"/>
<path d="M2140 3600 c-5 -10 -10 -35 -10 -54 0 -45 -29 -77 -62 -70 -22 5 -22
5 -5 -9 14 -11 15 -16 5 -20 -7 -3 -3 -6 9 -6 12 -1 35 10 50 24 15 13 22 25
15 25 -7 0 -10 5 -7 10 9 15 25 12 25 -4 0 -9 7 -12 20 -9 11 3 20 1 20 -4 0
-5 9 -9 20 -10 11 -1 18 2 15 7 -3 5 -1 11 5 15 5 3 10 17 10 30 0 22 -3 24
-25 15 -22 -9 -27 -7 -35 16 -6 14 -10 31 -10 39 0 22 -29 26 -40 5z"/>
<path d="M1195 3031 c-22 -11 -35 -19 -30 -19 14 -1 93 36 80 37 -5 0 -28 -8
-50 -18z"/>
<path d="M1055 2970 c-3 -6 1 -7 9 -4 18 7 21 14 7 14 -6 0 -13 -4 -16 -10z"/>
<path d="M669 2738 c-87 -63 -200 -189 -199 -223 1 -5 9 5 18 22 20 38 108
131 172 181 61 49 65 52 59 52 -4 0 -26 -14 -50 -32z"/>
<path d="M569 2703 c-13 -16 -12 -17 4 -4 9 7 17 15 17 17 0 8 -8 3 -21 -13z"/>
<path d="M510 2653 c-66 -79 -73 -88 -71 -90 6 -11 -1 -23 -11 -17 -7 4 -8 3
-4 -4 4 -7 2 -12 -4 -12 -7 0 -9 -7 -6 -16 4 -10 2 -13 -6 -8 -7 5 -9 2 -5 -9
3 -9 2 -17 -3 -19 -13 -4 -60 -193 -60 -237 l1 -36 14 25 c17 30 21 65 5 40
-8 -13 -10 -13 -10 2 0 9 6 21 13 25 16 9 41 99 32 113 -3 5 4 26 15 47 12 21
18 29 15 18 -9 -29 -19 -111 -12 -105 6 5 27 110 31 150 3 28 24 64 74 128 42
52 36 56 -8 5z"/>
<path d="M1221 2645 c-35 -8 -66 -16 -68 -19 -3 -3 -7 -60 -10 -128 l-6 -123
28 -33 c15 -18 54 -46 86 -63 57 -28 60 -29 91 -13 32 17 128 102 128 114 0 3
-20 -13 -45 -37 -32 -30 -52 -42 -68 -40 -12 2 -35 0 -52 -4 -24 -6 -22 -7 15
-4 40 3 42 1 25 -11 -30 -22 -75 -14 -75 12 0 8 -5 14 -11 14 -5 0 -7 -5 -3
-12 4 -7 3 -8 -4 -4 -6 4 -9 13 -5 21 3 10 -1 15 -12 15 -10 0 -13 -4 -9 -12
5 -8 1 -7 -10 1 -17 14 -17 15 2 22 15 6 18 14 14 34 -4 26 -3 27 36 24 23 -2
44 0 48 4 4 4 -6 7 -22 7 -38 0 -64 35 -34 45 21 7 28 25 9 25 -8 0 -8 4 -1
13 15 17 10 83 -6 80 -14 -3 -16 16 -2 37 7 11 5 17 -8 21 -18 7 41 12 122 11
61 -1 76 -7 76 -29 0 -15 -2 -16 -10 -3 -5 8 -12 12 -15 8 -4 -3 3 -14 14 -25
15 -14 22 -39 29 -108 7 -72 10 -79 11 -38 0 29 -4 86 -10 127 -11 71 -12 74
-41 80 -49 10 -138 6 -207 -9z m29 -225 c0 -5 -4 -10 -10 -10 -5 0 -10 5 -10
10 0 6 5 10 10 10 6 0 10 -4 10 -10z"/>
<path d="M1337 2628 c7 -12 13 -55 13 -105 0 -13 5 -23 10 -23 14 0 13 63 -1
77 -6 6 -8 17 -4 23 5 8 14 -2 25 -26 14 -30 19 -34 19 -17 1 12 -3 25 -9 28
-12 7 -13 25 -2 25 5 0 15 -11 22 -25 7 -14 15 -23 17 -21 3 2 -3 15 -11 28
-9 14 -13 28 -9 33 5 4 -2 3 -13 -3 -17 -9 -25 -8 -34 3 -15 18 -34 20 -23 3z"/>
<path d="M649 2613 c-13 -16 -12 -17 4 -4 9 7 17 15 17 17 0 8 -8 3 -21 -13z"/>
<path d="M3220 2626 c0 -2 8 -10 18 -17 15 -13 16 -12 3 4 -13 16 -21 21 -21
13z"/>
<path d="M1312 2535 c0 -16 2 -22 5 -12 2 9 2 23 0 30 -3 6 -5 -1 -5 -18z"/>
<path d="M1330 2531 c0 -25 6 -27 13 -6 4 8 2 17 -3 20 -6 4 -10 -3 -10 -14z"/>
<path d="M1391 2514 c0 -11 3 -14 6 -6 3 7 2 16 -1 19 -3 4 -6 -2 -5 -13z"/>
<path d="M3340 2506 c0 -2 8 -10 18 -17 15 -13 16 -12 3 4 -13 16 -21 21 -21
13z"/>
<path d="M1317 2479 c4 -13 8 -18 11 -10 2 7 -1 18 -6 23 -8 8 -9 4 -5 -13z"/>
<path d="M456 2475 c-3 -9 -6 -22 -5 -28 0 -7 5 -1 10 12 5 13 8 26 5 28 -2 2
-6 -3 -10 -12z"/>
<path d="M1355 2481 c-3 -5 -1 -12 5 -16 5 -3 10 1 10 9 0 18 -6 21 -15 7z"/>
<path d="M520 2419 c-7 -11 -10 -23 -7 -25 2 -2 9 7 15 21 14 30 7 33 -8 4z"/>
<path d="M1330 2416 c0 -7 61 -13 65 -6 2 3 -12 7 -31 8 -19 2 -34 1 -34 -2z"/>
<path d="M1395 2390 c-3 -5 -1 -10 4 -10 6 0 11 5 11 10 0 6 -2 10 -4 10 -3 0
-8 -4 -11 -10z"/>
<path d="M1261 2368 c-11 -18 -11 -20 3 -15 10 4 16 1 16 -7 0 -8 -6 -16 -12
-19 -7 -2 2 -4 20 -3 26 1 29 3 17 12 -8 6 -18 20 -22 32 l-8 22 -14 -22z"/>
<path d="M503 2315 c0 -38 2 -53 4 -32 2 20 2 52 0 70 -2 17 -4 1 -4 -38z"/>
<path d="M1301 2364 c0 -11 3 -14 6 -6 3 7 2 16 -1 19 -3 4 -6 -2 -5 -13z"/>
<path d="M1325 2360 c-3 -5 1 -10 10 -10 9 0 13 5 10 10 -3 6 -8 10 -10 10 -2
0 -7 -4 -10 -10z"/>
<path d="M1380 2360 c-8 -5 -10 -10 -5 -10 6 0 17 5 25 10 8 5 11 10 5 10 -5
0 -17 -5 -25 -10z"/>
<path d="M401 2334 c0 -11 3 -14 6 -6 3 7 2 16 -1 19 -3 4 -6 -2 -5 -13z"/>
<path d="M432 2330 c0 -14 2 -19 5 -12 2 6 2 18 0 25 -3 6 -5 1 -5 -13z"/>
<path d="M1358 2333 c7 -3 16 -2 19 1 4 3 -2 6 -13 5 -11 0 -14 -3 -6 -6z"/>
<path d="M2518 2243 c7 -3 16 -2 19 1 4 3 -2 6 -13 5 -11 0 -14 -3 -6 -6z"/>
<path d="M2560 2246 c0 -2 9 -6 20 -9 11 -3 20 -1 20 4 0 5 -9 9 -20 9 -11 0
-20 -2 -20 -4z"/>
<path d="M1298 2175 l-26 -15 51 -85 51 -85 43 0 c24 0 43 3 43 6 0 3 -8 18
-18 32 -10 15 -35 57 -56 95 -20 37 -42 67 -49 67 -7 -1 -24 -7 -39 -15z"/>
<path d="M1223 2109 c-19 -12 -30 -26 -26 -32 50 -86 52 -87 98 -87 25 0 45 2
45 4 0 5 -81 136 -84 136 0 0 -16 -10 -33 -21z"/>
<path d="M2473 2107 c-19 -24 -23 -36 -14 -41 5 -3 16 5 25 19 16 24 6 45 -11
22z"/>
<path d="M352 2079 c3 -8 0 -20 -8 -26 -10 -10 -13 -9 -16 5 -3 12 -11 5 -26
-25 -12 -23 -22 -45 -22 -48 0 -12 25 2 35 20 13 25 55 33 55 11 0 -20 10 -20
24 -1 9 12 15 13 36 2 34 -17 59 -62 43 -78 -9 -9 -16 -9 -25 -2 -10 9 -14 1
-15 -38 -2 -30 1 -49 8 -49 6 0 8 7 5 16 -8 22 22 64 45 61 23 -4 59 -49 59
-74 0 -32 -16 -46 -44 -39 -20 5 -26 3 -26 -9 0 -9 4 -14 9 -11 5 3 14 0 20
-7 8 -10 4 -21 -17 -45 l-27 -33 -35 18 c-28 14 -36 25 -38 51 -3 27 -6 31
-17 22 -18 -15 -31 -7 -51 32 -18 36 -11 83 11 74 8 -3 15 -1 15 4 0 6 -6 10
-14 10 -8 0 -21 9 -28 19 -13 18 -15 18 -25 3 -6 -10 -7 -35 -3 -62 4 -25 8
-39 9 -31 1 11 5 10 16 -5 18 -23 19 -54 3 -54 -13 0 72 -89 85 -90 5 0 5 5 2
10 -3 6 3 10 13 10 22 0 46 -23 35 -33 -13 -14 49 -7 77 8 34 18 40 29 10 20
-14 -5 -20 -2 -20 9 0 15 16 21 51 18 11 -1 19 9 22 26 3 15 9 35 12 45 5 13
3 16 -8 12 -10 -4 -17 2 -21 22 -4 15 -9 36 -13 47 -3 12 -1 16 6 12 19 -12
12 10 -9 29 -11 10 -22 26 -25 36 -4 10 -27 28 -51 39 -36 16 -44 23 -39 38 4
15 -1 21 -22 25 -16 3 -37 9 -47 13 -15 6 -18 4 -14 -7z"/>
<path d="M2499 2066 c-10 -22 -9 -29 6 -46 22 -25 37 -26 33 -2 -2 11 4 18 20
20 23 4 31 -13 10 -21 -8 -3 -6 -6 5 -6 21 -1 23 -21 2 -21 -8 0 -15 -5 -15
-11 0 -6 7 -8 15 -5 8 3 22 9 30 12 9 4 15 0 15 -9 0 -9 -9 -19 -21 -22 -19
-7 -20 -7 -2 -21 21 -15 37 -18 28 -5 -3 5 2 17 11 25 14 14 14 19 2 34 -40
50 -63 72 -72 68 -6 -2 -21 6 -33 17 l-22 20 -12 -27z"/>
<path d="M1141 2031 c-31 -23 -22 -56 12 -47 12 3 32 6 44 6 22 0 22 1 5 30
-20 35 -28 36 -61 11z"/>
<path d="M333 1967 c-3 -5 -1 -7 5 -4 24 15 37 -4 36 -51 0 -26 1 -53 4 -59 8
-24 19 -13 25 25 3 20 8 46 12 57 5 14 4 16 -3 7 -7 -11 -11 -8 -16 11 -4 18
-12 25 -31 25 -14 0 -28 -5 -32 -11z"/>
<path d="M1783 1773 c-18 -7 -16 -28 3 -43 12 -11 18 -10 31 3 13 13 14 19 3
31 -13 17 -17 18 -37 9z"/>
<path d="M1202 1752 c-55 -3 -63 -5 -57 -20 21 -51 45 -173 45 -230 l0 -65 68
6 c77 6 102 14 102 31 0 10 -13 10 -54 3 -81 -15 -87 -10 -79 65 7 68 15 81
51 75 12 -2 22 -1 22 3 0 9 -46 30 -65 30 -8 0 -15 9 -15 19 0 11 -3 27 -7 36
-5 16 1 17 64 13 53 -3 69 0 66 9 -5 11 -29 22 -63 27 -8 1 -44 0 -78 -2z"/>
<path d="M2280 1725 c-8 -10 -28 -26 -45 -37 -20 -12 -24 -18 -13 -18 15 0 18
-14 20 -107 l3 -108 33 -3 c30 -3 32 -1 24 15 -6 10 -8 59 -5 111 l6 94 28 -6
c22 -4 29 -2 29 9 0 10 -10 15 -29 15 -25 0 -30 5 -33 27 -3 25 -4 25 -18 8z"/>
<path d="M1388 1631 c2 -36 7 -91 10 -121 7 -53 8 -55 40 -58 31 -3 33 -2 23
17 -6 11 -11 54 -11 96 0 71 2 76 25 87 43 19 54 -1 57 -105 l3 -92 30 -3 30
-3 -3 100 c-4 94 -3 99 18 106 38 12 50 -10 50 -95 0 -98 4 -110 42 -110 23 0
29 4 24 16 -3 9 -6 55 -6 104 0 96 -8 114 -57 126 -17 5 -33 0 -53 -14 -23
-18 -30 -19 -39 -8 -22 26 -62 29 -92 7 -23 -17 -30 -18 -36 -7 -4 7 -19 15
-33 18 -26 4 -26 4 -22 -61z"/>
<path d="M1771 1678 c7 -14 10 -52 7 -108 -6 -97 1 -120 37 -120 22 0 24 2 14
27 -6 16 -7 58 -3 103 7 89 -3 120 -42 120 -22 0 -24 -2 -13 -22z"/>
<path d="M1879 1678 c5 -13 6 -58 3 -100 -6 -103 1 -128 36 -128 l27 0 -3 94
c-4 88 -2 95 17 106 12 6 31 8 41 5 15 -5 20 -2 20 13 0 11 -7 23 -16 26 -19
7 -54 -10 -54 -26 0 -7 -9 -2 -20 10 -12 12 -29 22 -40 22 -16 0 -18 -4 -11
-22z"/>
<path d="M2053 1693 c-7 -2 -13 -14 -13 -24 0 -18 2 -19 21 -6 28 20 59 10 59
-19 0 -17 -10 -29 -39 -44 -47 -23 -71 -54 -71 -91 0 -49 60 -77 94 -43 15 14
17 14 22 0 4 -10 18 -16 35 -16 26 0 28 2 19 19 -5 11 -10 60 -10 110 0 90 0
91 -30 106 -29 15 -63 18 -87 8z m65 -155 c-3 -47 -6 -53 -27 -56 -29 -4 -42
14 -35 48 6 25 38 60 56 60 5 0 8 -24 6 -52z"/>
<path d="M2423 1680 c-36 -14 -63 -68 -63 -123 0 -42 5 -54 34 -83 26 -26 43
-34 69 -34 45 0 67 9 67 26 0 11 -4 12 -19 4 -29 -15 -39 -13 -66 15 -33 32
-31 41 8 61 44 22 87 64 87 85 0 23 -46 59 -74 58 -11 0 -31 -4 -43 -9z m63
-25 c12 -30 -29 -95 -60 -95 -10 0 -7 45 5 79 12 33 45 43 55 16z"/>
<path d="M266 1663 c-6 -14 -5 -15 5 -6 7 7 10 15 7 18 -3 3 -9 -2 -12 -12z"/>
<path d="M2586 1664 c-23 -23 -19 -65 9 -104 31 -41 35 -100 7 -100 -10 0 -23
5 -30 12 -9 9 -12 8 -12 -5 0 -23 41 -39 58 -23 7 7 17 37 24 68 11 51 10 57
-10 83 -12 15 -22 34 -22 42 0 19 27 28 45 13 12 -10 15 -10 15 3 0 29 -59 37
-84 11z"/>
<path d="M898 1648 c-2 -37 -5 -70 -12 -128 -3 -30 -7 -92 -8 -138 -3 -95 -4
-95 -102 -93 -105 2 -475 67 -549 97 -16 6 -18 2 -15 -27 3 -31 7 -35 50 -48
l46 -14 7 -71 c8 -88 43 -337 55 -391 5 -22 10 -54 10 -72 0 -96 83 -266 220
-451 219 -297 231 -312 255 -312 18 0 26 8 33 33 15 47 30 112 46 197 9 41 29
136 45 210 17 74 35 158 41 185 6 28 26 117 44 198 20 88 29 146 23 144 -6 -2
-17 -30 -23 -63 -12 -54 -53 -162 -54 -139 0 6 -5 3 -10 -5 -8 -11 -10 -5 -10
25 0 59 -3 85 -13 85 -4 0 -5 16 -1 36 4 23 3 35 -3 31 -5 -3 -8 6 -5 24 3 21
0 29 -10 29 -10 0 -15 11 -15 33 -2 81 -17 193 -27 206 -7 10 -11 85 -10 228
0 117 -1 213 -3 213 -2 0 -4 -10 -5 -22z m53 -768 c5 -41 8 -117 7 -168 l-3
-93 -39 52 c-21 29 -43 68 -49 88 -18 67 -18 68 -27 46 -8 -17 -9 -18 -9 -2
-1 10 10 39 23 65 13 26 29 72 36 102 7 30 15 62 17 70 7 22 33 -72 44 -160z"/>
<path d="M220 1625 c0 -8 4 -15 8 -15 5 0 9 7 9 15 0 8 -4 15 -9 15 -4 0 -8
-7 -8 -15z"/>
<path d="M350 1584 c0 -8 5 -12 10 -9 6 4 8 11 5 16 -9 14 -15 11 -15 -7z"/>
<path d="M375 1571 c-3 -5 -1 -12 5 -16 5 -3 10 1 10 9 0 18 -6 21 -15 7z"/>
<path d="M518 1563 c6 -2 18 -2 25 0 6 3 1 5 -13 5 -14 0 -19 -2 -12 -5z"/>
<path d="M2881 1534 c0 -11 3 -14 6 -6 3 7 2 16 -1 19 -3 4 -6 -2 -5 -13z"/>
<path d="M608 1513 c7 -3 16 -2 19 1 4 3 -2 6 -13 5 -11 0 -14 -3 -6 -6z"/>
<path d="M2876 1448 c-2 -18 -9 -89 -15 -158 -6 -69 -14 -146 -17 -172 -4 -32
-2 -48 5 -48 7 0 11 -24 11 -64 0 -35 9 -92 19 -125 17 -54 17 -66 6 -105 -15
-50 -50 -121 -75 -153 -19 -25 -19 -50 5 -213 8 -52 17 -111 19 -130 3 -19 10
-59 16 -89 5 -29 10 -80 10 -112 0 -56 11 -77 24 -44 3 8 17 20 31 27 18 8 24
16 19 30 -4 15 -1 18 11 16 12 -2 23 8 34 29 9 18 22 33 29 33 6 0 12 9 12 20
0 11 3 19 8 17 9 -3 52 40 52 54 0 5 5 7 10 4 6 -3 10 1 10 10 0 9 5 13 10 10
6 -3 10 1 10 10 0 9 4 14 9 10 12 -7 42 35 34 48 -3 6 -1 7 4 4 6 -4 19 6 29
21 9 15 25 32 33 39 9 7 12 13 8 13 -4 0 3 12 17 26 33 36 71 117 86 184 7 30
21 82 32 114 11 33 24 80 29 105 23 113 40 218 41 246 0 16 6 53 14 80 8 28
15 63 16 79 3 28 39 66 63 66 20 0 45 35 45 63 0 15 -3 27 -7 27 -3 0 -35 -14
-71 -31 -80 -37 -284 -94 -413 -115 -99 -16 -168 -9 -185 17 -8 14 -14 77 -13
142 0 54 -8 62 -15 15z"/>
<path d="M220 1424 c0 -8 5 -12 10 -9 6 4 8 11 5 16 -9 14 -15 11 -15 -7z"/>
<path d="M1387 1248 c-9 -67 -14 -124 -12 -127 12 -11 28 20 32 62 4 33 10 47
24 50 23 6 25 27 3 27 -13 0 -15 7 -10 31 3 17 6 35 6 40 0 5 9 9 20 9 11 0
20 7 20 15 0 10 -10 15 -33 15 l-33 0 -17 -122z"/>
<path d="M1520 1365 c0 -13 -31 -202 -36 -217 -4 -15 1 -18 30 -18 25 0 36 5
36 15 0 9 -6 12 -15 9 -18 -7 -18 2 -6 77 22 126 22 139 6 139 -8 0 -15 -2
-15 -5z"/>
<path d="M1611 1283 c1 -49 -2 -105 -6 -125 -6 -31 -4 -38 8 -38 11 0 17 15
22 50 4 27 19 83 35 125 25 67 26 75 11 75 -12 0 -21 -13 -28 -37 l-10 -38 -2
38 c-1 26 -6 37 -16 37 -13 0 -15 -15 -14 -87z"/>
<path d="M1796 1348 c-18 -83 -36 -203 -32 -213 3 -8 17 -10 42 -6 35 6 39 10
46 46 5 22 6 50 3 62 -3 12 -1 23 4 25 5 2 11 26 13 53 l3 50 -37 3 c-32 3
-38 0 -42 -20z m50 -40 c-6 -33 -22 -56 -31 -47 -11 11 8 79 23 79 11 0 13 -7
8 -32z m-20 -122 c-4 -22 -13 -36 -22 -36 -12 0 -13 8 -8 38 8 47 14 56 26 44
6 -6 8 -26 4 -46z"/>
<path d="M1915 1258 c-9 -62 -18 -117 -19 -123 -2 -15 67 -12 72 3 2 7 -5 12
-18 12 -20 0 -22 4 -16 31 3 17 6 35 6 39 0 4 9 10 20 13 23 6 27 27 5 27 -30
0 -13 77 18 82 39 6 31 28 -11 28 l-39 0 -18 -112z"/>
<path d="M2030 1356 c0 -8 5 -16 11 -18 9 -3 9 -30 -1 -106 -7 -57 -10 -106
-6 -109 14 -14 24 17 36 115 9 74 16 102 26 102 8 0 14 7 14 15 0 11 -11 15
-40 15 -28 0 -40 -4 -40 -14z"/>
<path d="M2140 1356 c0 -8 5 -16 10 -18 10 -3 1 -105 -16 -190 -4 -20 -2 -28
9 -28 15 0 18 14 33 144 4 38 13 64 25 74 28 24 23 32 -21 32 -28 0 -40 -4
-40 -14z"/>
<path d="M2255 1358 c-6 -20 -35 -203 -35 -222 0 -13 7 -17 32 -14 36 3 52 28
18 28 -20 0 -22 4 -16 31 3 17 6 35 6 39 0 4 9 10 20 13 23 6 27 27 5 27 -30
0 -13 77 18 82 37 6 32 28 -7 28 -21 0 -38 -6 -41 -12z"/>
<path d="M2349 1248 c-12 -65 -19 -121 -16 -124 12 -13 25 8 31 51 9 56 26 49
26 -11 0 -34 4 -44 16 -44 14 0 16 9 12 52 -4 38 -2 56 8 63 15 11 35 98 25
113 -3 5 -23 11 -43 14 l-37 4 -22 -118z m67 38 c-4 -22 -13 -36 -22 -36 -14
0 -14 13 3 74 9 33 26 0 19 -38z"/>
<path d="M2831 1044 c0 -11 3 -14 6 -6 3 7 2 16 -1 19 -3 4 -6 -2 -5 -13z"/>
<path d="M1091 1019 c-13 -39 -14 -46 -2 -33 9 10 24 64 17 64 -2 0 -9 -14
-15 -31z"/>
<path d="M2793 820 c0 -25 2 -35 4 -22 2 12 2 32 0 45 -2 12 -4 2 -4 -23z"/>
<path d="M2773 360 c0 -30 2 -43 4 -27 2 15 2 39 0 55 -2 15 -4 2 -4 -28z"/>
</g>
</svg>
