<?xml version="1.0" standalone="no"?>
<!DOCTYPE svg PUBLIC "-//W3C//DTD SVG 20010904//EN"
 "http://www.w3.org/TR/2001/REC-SVG-20010904/DTD/svg10.dtd">
<svg version="1.0" xmlns="http://www.w3.org/2000/svg"
 width="380.000000pt" height="449.000000pt" viewBox="0 0 380.000000 449.000000"
 preserveAspectRatio="xMidYMid meet">

<g transform="translate(0.000000,449.000000) scale(0.100000,-0.100000)"
fill="#000000" stroke="none">
<path d="M2133 4390 c1 -11 6 -20 12 -20 6 0 20 -7 31 -15 17 -12 13 -12 -31
-1 -28 7 -60 18 -70 23 -20 11 -97 17 -170 14 -262 -10 -269 -11 -294 -39 -13
-15 -30 -37 -39 -50 -8 -13 -18 -19 -21 -14 -14 23 -44 16 -61 -13 -19 -34
-37 -100 -20 -75 7 12 10 12 10 1 0 -7 -20 -41 -45 -75 -25 -33 -55 -76 -67
-94 -15 -21 -29 -31 -41 -28 -9 2 -15 0 -12 -5 7 -10 -18 -61 -39 -78 -19 -16
-46 -73 -83 -171 -26 -71 -28 -85 -28 -235 0 -114 4 -169 14 -193 17 -41 11
-48 -27 -28 -29 15 -31 15 -46 -9 -9 -14 -16 -35 -14 -48 1 -12 -1 -42 -6 -67
-5 -32 -3 -55 7 -80 8 -19 12 -42 9 -50 -2 -8 -2 -12 2 -9 6 6 17 69 18 109 0
8 6 22 13 30 14 18 17 60 4 60 -5 0 -9 -11 -9 -24 0 -14 -4 -28 -10 -31 -6 -4
-10 10 -10 34 0 23 5 41 11 41 5 0 8 4 5 8 -2 4 4 8 14 8 10 0 16 -4 13 -9 -2
-4 7 -5 20 -2 33 9 39 -11 32 -99 -3 -43 -1 -65 5 -61 6 3 10 -2 11 -12 0 -10
2 -27 5 -38 12 -60 34 -268 34 -325 0 -84 23 -190 51 -240 13 -22 25 -40 28
-40 7 0 16 -228 16 -410 0 -132 -1 -136 -28 -175 -25 -35 -28 -46 -22 -88 8
-66 71 -210 121 -277 60 -80 232 -269 257 -281 20 -9 20 -9 5 4 -10 8 -18 19
-18 26 0 6 -4 11 -8 11 -5 0 -16 18 -26 40 -10 22 -24 40 -32 40 -8 0 -14 5
-14 10 0 6 -6 10 -14 10 -8 0 -26 21 -40 46 -28 51 -33 69 -13 58 8 -6 8 -3
-2 9 -7 9 -11 24 -7 32 3 9 2 13 -4 10 -14 -9 -12 9 2 24 11 10 10 11 -5 5
-12 -4 -16 -2 -12 7 6 18 -66 114 -85 114 -9 0 -14 9 -13 23 2 12 -1 22 -6 22
-13 0 -22 -43 -11 -54 19 -19 10 -29 -10 -11 -11 10 -17 22 -14 26 3 5 0 9 -6
9 -6 0 -8 5 -5 10 3 6 2 10 -4 10 -14 0 -26 63 -12 68 6 2 9 9 5 15 -7 15 17
-15 32 -40 7 -10 14 -16 17 -13 3 3 7 89 9 190 3 164 -2 236 -17 261 -3 4 -1
9 4 11 22 8 16 75 -6 81 -10 3 3 5 30 6 26 0 46 -2 46 -6 -3 -19 2 -33 11 -33
6 0 10 7 10 15 0 9 6 12 15 9 8 -4 13 -9 11 -13 -6 -9 16 -36 42 -50 12 -6 22
-19 22 -29 0 -15 2 -15 10 -2 8 13 10 12 10 -3 0 -10 4 -16 9 -12 5 3 13 -5
17 -17 4 -13 18 -33 31 -46 22 -20 26 -21 39 -7 9 8 12 15 8 15 -4 0 1 9 11
20 16 18 20 19 27 6 5 -9 15 -13 25 -9 9 4 14 2 11 -3 -4 -5 15 -8 43 -7 28 1
47 -1 45 -6 -3 -5 18 -7 47 -5 114 9 167 8 179 -4 9 -9 8 -12 -4 -12 -26 0
-30 -17 -14 -49 11 -21 12 -31 4 -33 -7 -3 -5 -13 7 -31 15 -23 15 -26 2 -21
-13 5 -14 1 -6 -23 19 -59 22 -64 35 -59 7 3 16 1 19 -4 4 -6 13 -10 22 -10 9
0 13 3 10 7 -4 3 3 11 16 17 12 6 23 22 25 34 2 12 8 22 14 22 6 0 8 11 5 28
-4 19 1 35 18 56 l23 29 16 -32 c19 -35 41 -42 33 -10 -4 15 -2 19 9 15 8 -3
14 -1 14 4 0 5 -11 10 -26 12 -23 3 -24 4 -10 23 20 28 41 6 41 -43 0 -30 3
-36 18 -34 11 2 17 -4 17 -18 0 -11 -4 -20 -8 -20 -12 0 -8 -40 5 -48 7 -4 11
-14 11 -22 -3 -42 3 -60 19 -60 15 0 14 -2 -3 -15 -10 -8 -16 -15 -12 -15 4 0
3 -11 -2 -25 -6 -16 -6 -27 2 -31 7 -5 6 -11 -6 -19 -15 -12 -15 -13 0 -19 12
-5 15 -15 12 -41 -2 -19 0 -35 4 -35 4 0 8 -10 9 -22 0 -22 1 -22 9 -3 6 14 9
15 9 4 1 -8 -4 -20 -11 -27 -9 -9 -8 -15 8 -27 13 -10 14 -13 3 -10 -26 10
-44 -21 -30 -52 6 -14 9 -28 6 -31 -3 -3 -5 1 -5 9 -1 8 -8 -1 -16 -20 -8 -19
-12 -41 -10 -48 3 -7 1 -15 -4 -18 -6 -4 -10 -10 -10 -15 0 -37 303 341 341
425 26 57 24 81 -16 135 -19 26 -35 53 -35 59 0 6 -13 11 -29 11 -16 0 -34 7
-41 15 -28 34 -67 515 -47 590 4 17 14 67 22 112 16 97 19 103 50 103 35 0
112 82 126 134 6 22 20 65 31 95 11 33 20 86 21 136 2 97 -9 120 -56 111 -27
-5 -29 -4 -22 17 15 48 15 291 0 370 -8 44 -18 84 -22 90 -4 7 -8 14 -9 17 -6
34 -20 69 -34 87 -10 12 -28 48 -40 80 -13 32 -27 62 -31 67 -4 5 -3 18 2 29
9 15 8 18 -2 12 -9 -6 -11 -3 -6 9 4 11 3 15 -4 10 -6 -4 -29 13 -52 37 -33
36 -41 52 -41 86 -2 55 -29 84 -115 120 -36 15 -86 42 -111 59 -25 17 -55 36
-67 43 -19 10 -22 8 -20 -9z m-464 -487 c26 -15 33 -16 40 -4 7 11 13 11 32
-2 25 -18 69 -13 82 10 4 7 19 13 32 13 18 0 25 -7 30 -30 5 -24 10 -28 23
-21 21 10 92 2 92 -11 0 -6 7 -8 14 -5 9 4 13 1 10 -6 -2 -7 9 -17 26 -24 25
-9 30 -9 30 3 0 20 37 17 58 -4 10 -10 26 -21 35 -25 21 -8 22 -27 2 -27 -8 0
-15 5 -15 12 0 6 -3 8 -6 5 -4 -4 0 -17 9 -31 15 -22 15 -25 -4 -41 -17 -16
-24 -17 -59 -6 -45 13 -57 9 -70 -23 -9 -21 -9 -21 -9 0 -1 29 -11 36 -28 19
-11 -11 -19 -12 -34 -5 -14 8 -19 7 -19 -1 0 -6 -7 -9 -15 -5 -9 3 -15 0 -15
-8 0 -8 7 -16 15 -20 9 -3 15 0 15 9 0 8 5 15 10 15 6 0 10 -10 10 -22 1 -21
2 -21 11 -5 14 24 32 22 24 -4 -5 -14 -3 -19 3 -15 15 9 91 -34 98 -56 3 -10
12 -18 19 -18 8 0 19 -9 25 -20 8 -15 6 -21 -9 -30 -11 -5 -26 -10 -35 -10 -8
0 -28 -12 -45 -26 -17 -14 -36 -22 -42 -18 -9 5 -11 -6 -7 -40 5 -39 2 -48
-14 -57 -10 -5 -27 -7 -37 -4 -14 4 -23 -4 -40 -37 -12 -24 -17 -44 -11 -46
16 -6 12 -48 -5 -62 -13 -11 -13 -15 -3 -21 10 -7 8 -9 -5 -9 -17 0 -18 -6
-11 -57 4 -32 8 -66 9 -76 1 -10 6 -22 11 -25 6 -4 19 -22 29 -39 21 -36 27
-38 56 -23 12 7 19 7 19 1 0 -5 9 -13 20 -16 11 -3 20 -15 20 -26 0 -19 0 -19
-20 1 -24 24 -78 26 -106 5 -10 -8 -27 -15 -37 -15 -10 0 -16 -4 -13 -9 3 -4
16 -6 30 -4 30 6 45 -16 23 -32 -18 -13 -24 -31 -8 -20 5 3 12 1 16 -5 3 -5 0
-10 -7 -10 -8 -1 -6 -6 6 -15 17 -13 17 -15 3 -21 -9 -3 -14 -10 -11 -16 3 -5
12 -7 20 -4 7 3 16 1 19 -4 4 -6 1 -10 -4 -10 -6 0 -11 -7 -11 -15 0 -8 5 -15
11 -15 5 0 8 -4 5 -9 -3 -5 -27 -8 -53 -7 -27 1 -68 -4 -93 -12 -98 -30 -99
-31 -93 -16 7 18 2 18 -33 -1 -26 -13 -26 -20 1 -16 6 1 1 -6 -9 -14 -11 -8
-30 -15 -42 -15 -39 0 -35 -25 4 -28 20 -1 45 -9 57 -16 12 -8 33 -12 48 -9
18 4 27 1 27 -7 0 -9 12 -10 44 -6 27 4 47 3 51 -4 4 -6 -4 -10 -19 -10 -17 0
-26 -6 -26 -15 0 -9 -7 -18 -15 -21 -20 -8 -19 -24 1 -24 10 0 14 -6 10 -15
-3 -8 -1 -15 5 -15 6 0 8 -9 4 -20 -6 -18 -2 -20 32 -21 30 0 34 -2 18 -9 -19
-8 -19 -8 5 -19 28 -13 0 -9 -35 4 -15 6 -13 2 8 -16 21 -19 27 -33 27 -66 0
-40 14 -63 28 -48 4 4 1 10 -5 12 -20 7 -15 30 9 53 28 26 38 25 31 -1 -5 -18
-3 -20 18 -15 l24 6 -22 -11 c-24 -12 -31 -29 -13 -29 18 0 8 -76 -12 -89 -11
-7 -18 -7 -18 -1 0 5 -7 10 -15 10 -8 0 -15 5 -15 10 0 6 -5 10 -11 10 -6 0
-9 -7 -5 -15 3 -8 1 -15 -4 -15 -6 0 -11 8 -11 18 -1 16 -2 16 -6 0 -2 -10 -8
-18 -13 -18 -16 0 -60 47 -60 64 0 10 -5 14 -11 10 -8 -5 -10 1 -7 20 3 14 1
26 -5 26 -6 0 -7 3 -4 6 8 9 -40 51 -65 57 -10 3 -18 1 -18 -4 0 -5 7 -9 15
-9 22 0 18 -17 -4 -23 -12 -3 -18 0 -15 7 2 6 -9 25 -26 41 -16 16 -30 23 -30
17 0 -7 7 -15 15 -18 19 -8 19 -20 -1 -28 -8 -3 -12 -2 -9 4 3 5 -3 20 -15 32
-12 13 -19 31 -16 41 3 14 0 17 -17 12 -15 -4 -18 -3 -9 3 11 7 8 15 -12 35
-14 14 -26 33 -26 40 0 8 -7 17 -15 21 -18 7 -20 56 -2 56 6 0 18 13 25 28 17
40 50 72 72 72 14 0 20 7 21 23 1 16 2 18 6 5 5 -22 23 -24 23 -3 0 8 3 14 8
14 4 -1 21 -1 38 0 23 1 31 6 30 18 0 10 7 19 17 21 10 2 17 -3 17 -12 0 -9 5
-16 11 -16 6 0 9 6 6 14 -3 8 5 27 19 43 13 15 24 31 24 36 0 4 5 7 11 7 6 0
9 -9 6 -20 -3 -11 -1 -22 3 -25 12 -7 8 -48 -4 -57 -12 -8 41 -30 62 -26 29 6
23 26 -8 33 -25 5 -31 11 -27 26 3 10 2 19 -3 19 -4 0 -5 10 -3 23 3 17 -2 26
-21 35 -21 9 -33 8 -71 -9 -25 -11 -45 -24 -45 -28 0 -5 -12 -8 -27 -7 -24 1
-28 -3 -25 -24 1 -14 -1 -20 -5 -15 -5 6 -16 11 -26 12 -14 1 -17 -4 -14 -18
3 -10 1 -19 -4 -19 -5 0 -9 7 -9 16 0 12 -5 11 -20 -7 -10 -13 -19 -18 -20
-11 0 21 -20 13 -20 -8 0 -11 -5 -20 -11 -20 -5 0 -9 -8 -8 -17 3 -31 -1 -43
-12 -43 -6 0 -9 6 -6 14 10 24 -18 39 -37 21 -9 -9 -20 -13 -26 -10 -5 3 -10
-1 -10 -9 0 -10 8 -13 30 -11 21 3 30 0 30 -10 0 -23 -12 -45 -21 -40 -4 3 -6
12 -2 20 3 8 1 15 -5 15 -15 0 -20 -21 -11 -57 5 -26 4 -33 -8 -33 -9 0 -11
-5 -7 -12 12 -19 12 -48 1 -55 -5 -3 3 -12 19 -19 l29 -14 -32 3 c-18 2 -33 0
-33 -5 0 -4 10 -8 23 -8 15 0 26 -9 35 -30 8 -17 19 -28 25 -24 7 3 -1 -5 -18
-20 -16 -14 -39 -26 -50 -26 l-20 -1 20 -15 c12 -10 14 -15 5 -12 -8 2 -19 14
-25 26 -5 12 -16 20 -23 17 -7 -3 -10 0 -7 5 3 6 13 10 21 10 21 0 17 15 -11
47 -17 19 -24 23 -25 13 0 -9 5 -21 12 -28 6 -6 9 -14 7 -17 -3 -2 -15 9 -28
25 -12 17 -17 30 -11 30 5 0 10 5 10 11 0 5 -5 7 -11 3 -8 -4 -10 3 -7 22 3
16 3 23 1 17 -6 -18 -30 -16 -37 3 -4 9 -4 19 -1 22 3 3 5 0 5 -6 0 -7 5 -12
10 -12 15 0 12 16 -6 34 -18 19 -11 21 17 5 19 -10 20 -9 9 10 -6 12 -8 26 -5
31 3 6 1 10 -5 10 -6 0 -10 10 -9 23 2 12 -1 32 -5 45 -4 13 -9 45 -11 70 -1
26 -6 55 -10 65 -4 9 -2 23 4 31 8 9 8 15 2 18 -16 5 -18 142 -2 162 18 21 39
21 43 -1 3 -15 5 -14 10 4 3 12 3 22 -1 21 -19 -2 -54 4 -43 9 17 7 15 33 -5
50 -17 14 -17 14 0 9 10 -3 22 -6 27 -6 5 0 11 -10 13 -22 4 -20 4 -19 6 5 1
23 -4 28 -28 33 -16 3 -34 16 -41 29 -16 30 -20 87 -6 104 6 7 9 26 8 42 -3
23 2 31 22 39 16 6 26 17 26 29 0 38 22 69 64 91 34 17 52 20 99 15 57 -6 78
-14 129 -48 14 -10 35 -19 45 -20 11 0 20 -7 20 -14 0 -9 -4 -10 -13 -2 -15
12 -111 15 -172 4 -69 -11 -133 -94 -87 -111 11 -5 13 -10 5 -19 -15 -18 -3
-23 53 -26 26 -2 47 -6 47 -10 0 -3 19 -3 41 1 34 6 42 5 46 -9 6 -23 43 -38
78 -30 17 4 26 7 21 8 -5 0 -3 8 4 16 6 8 9 18 6 23 -3 6 5 12 18 14 19 4 23
1 19 -16 -4 -21 -4 -21 11 -2 25 31 24 110 -2 140 -16 18 -16 19 5 14 36 -10
37 10 1 42 -18 17 -28 30 -23 30 15 1 -112 67 -142 75 -38 9 -83 43 -77 59 8
21 -22 39 -53 30 -16 -4 -30 -8 -33 -8 -3 -1 -11 -5 -17 -9 -7 -5 -13 -4 -13
0 0 16 24 33 46 33 13 0 25 4 28 9 3 4 -6 6 -19 3 -23 -4 -24 -2 -22 42 1 27
7 48 15 51 9 3 12 14 7 35 -4 16 -3 30 2 30 4 0 25 16 45 35 32 31 88 63 110
65 3 0 20 -8 37 -17z m514 -381 c-9 -2 -19 2 -24 10 -16 24 -9 29 15 11 19
-14 21 -19 9 -21z m165 -101 c13 -1 21 -5 17 -10 -3 -5 -1 -12 5 -16 6 -4 8
-10 5 -15 -3 -5 3 -16 12 -26 17 -16 28 -88 12 -78 -4 2 -10 -1 -12 -6 -3 -6
-4 -5 -3 2 3 17 -44 68 -73 79 -35 14 -88 21 -153 23 -64 1 -63 10 5 38 30 12
60 16 102 13 33 -2 70 -4 83 -4z m-621 -16 c0 -8 -4 -12 -9 -9 -5 3 -6 10 -3
15 9 13 12 11 12 -6z m-201 -61 c-4 -9 1 -27 9 -40 15 -23 14 -24 -8 -24 -34
0 -49 18 -35 44 10 19 27 35 37 36 2 0 0 -7 -3 -16z m135 -33 c-16 -28 -33
-27 -22 2 4 12 6 29 3 37 -4 12 -1 12 13 -1 14 -14 15 -21 6 -38z m97 -7 c0
-16 -3 -22 -8 -14 -4 7 -15 10 -24 7 -9 -4 -16 -2 -16 3 0 6 9 10 20 10 11 0
20 5 20 10 0 6 2 10 4 10 2 0 4 -12 4 -26z m392 7 c0 -11 3 -26 6 -34 4 -12 0
-13 -30 -3 l-35 11 21 22 c26 28 38 29 38 4z m147 -17 c2 -5 -5 -14 -15 -21
-17 -10 -18 -8 -14 13 4 24 22 29 29 8z m-137 -57 c0 -5 7 -7 15 -3 8 3 15 0
15 -5 0 -7 11 -9 25 -7 14 3 25 1 25 -6 0 -6 5 -4 11 4 8 12 10 11 7 -5 -3
-16 -10 -20 -38 -18 -30 2 -32 2 -12 -7 13 -6 22 -18 23 -32 l0 -23 9 23 c6
13 18 22 31 22 l22 0 -21 -23 c-12 -13 -19 -27 -15 -31 9 -10 -20 -2 -94 26
-29 11 -53 22 -53 24 0 17 32 35 51 29 15 -5 19 -4 15 4 -4 6 -15 11 -25 11
-10 0 -34 7 -52 15 l-34 14 48 -2 c26 -1 47 -5 47 -10z m166 -72 c14 -14 11
-19 -8 -16 -4 0 -7 -18 -5 -41 1 -28 10 -49 25 -64 26 -27 31 -67 7 -58 -9 4
-13 14 -11 23 8 25 -9 45 -30 37 -18 -7 -18 -8 -1 -20 22 -17 22 -26 -3 -26
-11 0 -20 -7 -20 -15 0 -11 5 -12 24 -5 21 8 26 6 31 -11 4 -11 4 -23 1 -26
-3 -4 -6 1 -6 10 0 22 -13 22 -32 0 -10 -12 -14 -33 -12 -60 3 -39 2 -43 -19
-43 -16 0 -26 -9 -34 -31 l-12 -32 -34 29 c-21 18 -32 36 -29 46 2 10 -3 20
-11 24 -14 5 -13 11 6 50 16 34 25 43 39 38 16 -5 17 -2 8 22 -14 36 -7 41 14
8 22 -32 28 -27 17 14 -8 25 -7 32 5 32 8 0 14 -5 14 -11 0 -5 5 -7 12 -3 9 6
9 9 0 12 -7 2 -12 8 -12 14 0 6 6 8 14 5 8 -3 21 4 30 18 15 23 15 25 -4 35
-20 10 -20 12 -3 35 21 29 21 29 39 10z m17 -55 c3 -11 1 -18 -4 -14 -5 3 -9
12 -9 20 0 20 7 17 13 -6z m-76 -22 c-3 -8 -6 -5 -6 6 -1 11 2 17 5 13 3 -3 4
-12 1 -19z m427 -38 c-6 -5 -24 21 -24 34 0 6 6 1 14 -10 8 -10 12 -21 10 -24z
m-536 -5 c-3 -3 -9 2 -12 12 -6 14 -5 15 5 6 7 -7 10 -15 7 -18z m515 -151
c-2 -7 -11 -10 -19 -7 -10 4 -11 10 -3 25 8 16 13 18 19 8 5 -7 6 -19 3 -26z
m-903 -63 c0 -6 -4 -13 -10 -16 -5 -3 -10 1 -10 9 0 9 5 16 10 16 6 0 10 -4
10 -9z m227 -107 c-3 -3 -12 -4 -19 -1 -8 3 -5 6 6 6 11 1 17 -2 13 -5z m183
-39 c0 -12 -19 -12 -23 0 -4 9 -1 12 9 8 7 -3 14 -7 14 -8z m20 -51 c0 -8 4
-13 8 -10 4 2 8 -4 8 -15 0 -24 -12 -25 -20 -1 -3 9 -9 23 -12 30 -3 6 -1 12
5 12 6 0 11 -7 11 -16z m-390 -34 c0 -5 -4 -10 -10 -10 -5 0 -10 5 -10 10 0 6
5 10 10 10 6 0 10 -4 10 -10z m371 -86 l-7 -26 -12 26 c-8 18 -8 25 -1 21 6
-5 10 0 9 11 -4 36 2 49 10 22 5 -16 5 -40 1 -54z m-225 43 c-16 -7 -45 -10
-65 -8 l-36 5 35 7 c19 3 49 7 65 7 l30 1 -29 -12z m16 -55 c31 7 43 6 50 -4
6 -10 10 -10 16 -1 5 8 18 3 42 -17 19 -16 31 -32 26 -37 -5 -4 -11 -2 -13 5
-3 6 -11 12 -20 12 -12 0 -12 -2 1 -16 22 -22 21 -22 -21 -13 -89 18 -134 45
-132 78 1 14 2 14 6 0 3 -14 11 -15 45 -7z m155 -7 c-4 -8 -11 -15 -17 -15
-14 0 -13 27 3 33 16 6 21 1 14 -18z m33 -5 c0 -5 -5 -10 -11 -10 -5 0 -7 5
-4 10 3 6 8 10 11 10 2 0 4 -4 4 -10z m-20 -24 c0 -3 -4 -8 -10 -11 -5 -3 -10
-1 -10 4 0 6 5 11 10 11 6 0 10 -2 10 -4z m-714 -151 l23 -30 -37 -2 c-31 -2
-33 0 -15 7 27 11 21 37 -11 51 -17 7 -18 9 -2 6 10 -1 29 -15 42 -32z m94 25
c0 -5 -12 -10 -27 -10 -22 0 -25 2 -13 10 20 13 40 13 40 0z m209 1 c7 -5 12
-13 10 -18 -2 -5 -12 -1 -21 9 -19 19 -13 24 11 9z m258 -45 c-3 -7 0 -19 6
-25 8 -8 8 -11 0 -11 -7 0 -15 5 -18 10 -7 12 0 40 11 40 3 0 4 -6 1 -14z
m-297 -6 c0 -5 -5 -10 -11 -10 -5 0 -7 5 -4 10 3 6 8 10 11 10 2 0 4 -4 4 -10z
m68 -59 c-15 -5 -19 4 -11 24 6 18 7 18 13 -1 4 -10 3 -21 -2 -23z m-48 -1 c0
-5 -5 -10 -11 -10 -5 0 -7 5 -4 10 3 6 8 10 11 10 2 0 4 -4 4 -10z m85 -10 c3
-5 -1 -10 -10 -10 -9 0 -13 5 -10 10 3 6 8 10 10 10 2 0 7 -4 10 -10z m-160
-20 c3 -6 -1 -7 -9 -4 -18 7 -21 14 -7 14 6 0 13 -4 16 -10z m24 -89 c9 -6 10
-11 2 -15 -13 -8 -31 1 -31 15 0 11 11 11 29 0z m571 -17 c0 -8 -4 -12 -10 -9
-5 3 -10 10 -10 16 0 5 5 9 10 9 6 0 10 -7 10 -16z m170 -249 c0 -8 -2 -15 -4
-15 -2 0 -6 7 -10 15 -3 8 -1 15 4 15 6 0 10 -7 10 -15z m-1028 -60 c7 -34 -6
-40 -21 -9 -14 32 -14 34 3 34 7 0 16 -11 18 -25z m1048 -134 c0 -5 -7 -11
-14 -14 -10 -4 -13 -1 -9 9 6 15 23 19 23 5z"/>
<path d="M1793 3222 c-27 -4 -29 -14 -8 -32 21 -18 20 -58 -2 -56 -13 1 -18
-7 -18 -31 0 -33 6 -33 41 1 18 16 20 24 11 43 -7 16 -7 30 1 48 13 27 7 33
-25 27z"/>
<path d="M1738 3213 c7 -3 16 -2 19 1 4 3 -2 6 -13 5 -11 0 -14 -3 -6 -6z"/>
<path d="M1831 3168 c-1 -20 4 -28 15 -28 12 0 14 4 7 13 -6 6 -13 19 -16 27
-3 9 -6 3 -6 -12z"/>
<path d="M1728 3143 c7 -3 16 -2 19 1 4 3 -2 6 -13 5 -11 0 -14 -3 -6 -6z"/>
<path d="M1747 2953 c-26 -25 41 -55 70 -31 12 10 11 14 -9 24 -25 15 -51 18
-61 7z"/>
<path d="M1710 2904 c0 -8 4 -14 9 -14 5 0 17 -3 25 -6 12 -4 15 -2 10 9 -7
20 -44 30 -44 11z"/>
<path d="M1375 2560 c3 -5 8 -10 11 -10 2 0 4 5 4 10 0 6 -5 10 -11 10 -5 0
-7 -4 -4 -10z"/>
<path d="M1397 2521 c-13 -26 -13 -30 1 -36 19 -7 20 -5 28 33 8 41 -9 42 -29
3z"/>
<path d="M1430 2441 c0 -5 9 -7 20 -4 11 3 20 7 20 9 0 2 -9 4 -20 4 -11 0
-20 -4 -20 -9z"/>
<path d="M1778 2433 c-34 -9 -10 -34 30 -32 14 0 13 2 -3 9 -11 5 -14 9 -7 9
6 1 12 6 12 11 0 10 -3 11 -32 3z"/>
<path d="M1468 2403 c7 -3 16 -2 19 1 4 3 -2 6 -13 5 -11 0 -14 -3 -6 -6z"/>
<path d="M1720 2400 c17 -11 47 -14 36 -3 -3 4 -17 8 -29 10 -17 2 -19 1 -7
-7z"/>
<path d="M1836 2332 c-3 -4 4 -9 15 -9 23 -2 25 3 4 10 -8 4 -16 3 -19 -1z"/>
<path d="M1783 2307 c4 -10 7 -24 7 -30 0 -8 3 -8 11 0 9 9 7 16 -7 30 -17 17
-18 17 -11 0z"/>
<path d="M1840 2302 c0 -8 -5 -10 -12 -6 -10 6 -10 4 0 -8 7 -8 10 -24 7 -34
-4 -12 -2 -11 6 4 14 26 31 30 22 5 -5 -15 -4 -16 8 -5 11 10 10 16 -9 34 -13
13 -22 17 -22 10z"/>
<path d="M2195 3160 c3 -5 8 -10 11 -10 2 0 4 5 4 10 0 6 -5 10 -11 10 -5 0
-7 -4 -4 -10z"/>
<path d="M2240 2954 c0 -8 5 -12 10 -9 6 3 10 10 10 16 0 5 -4 9 -10 9 -5 0
-10 -7 -10 -16z"/>
<path d="M1142 3054 c1 -11 -2 -29 -6 -41 -6 -20 -4 -23 16 -23 13 0 29 -5 36
-12 25 -25 12 17 -18 56 -20 26 -29 32 -28 20z"/>
<path d="M1542 2110 c0 -14 2 -19 5 -12 2 6 2 18 0 25 -3 6 -5 1 -5 -13z"/>
<path d="M1630 2032 c0 -9 29 -51 47 -70 7 -7 13 -18 13 -23 0 -5 7 -9 15 -9
20 0 19 10 -6 36 l-20 21 25 -4 c16 -3 26 -1 26 6 0 6 -7 11 -15 11 -7 0 -18
7 -23 17 -9 16 -62 29 -62 15z"/>
<path d="M2020 1959 c0 -5 5 -7 10 -4 6 3 10 8 10 11 0 2 -4 4 -10 4 -5 0 -10
-5 -10 -11z"/>
<path d="M1657 1948 c6 -7 14 -27 17 -43 5 -21 13 -31 26 -32 11 -1 20 4 20
13 0 8 -6 14 -14 14 -8 0 -17 11 -20 24 -3 13 -13 27 -22 30 -13 5 -14 3 -7
-6z"/>
<path d="M2298 1923 c6 -2 18 -2 25 0 6 3 1 5 -13 5 -14 0 -19 -2 -12 -5z"/>
<path d="M1953 1813 c-20 -7 -15 -23 7 -23 11 0 20 4 20 9 0 13 -12 19 -27 14z"/>
<path d="M1200 1795 c-24 -14 -24 -15 -2 -12 12 2 28 9 34 15 16 16 -2 14 -32
-3z"/>
<path d="M2135 1800 c3 -5 10 -10 16 -10 5 0 9 5 9 10 0 6 -7 10 -16 10 -8 0
-12 -4 -9 -10z"/>
<path d="M2856 1778 c3 -10 1 -18 -4 -18 -27 0 -13 -38 33 -86 66 -70 158
-105 344 -128 24 -3 62 -16 85 -30 22 -13 69 -38 104 -56 34 -18 61 -34 60
-36 -2 -1 -55 15 -118 37 -63 21 -128 39 -144 39 -62 1 -169 30 -214 59 -104
67 -179 111 -188 111 -10 0 -39 -51 -32 -54 2 0 73 -36 158 -79 138 -70 164
-80 234 -88 90 -10 238 -56 308 -97 49 -28 257 -161 296 -188 21 -16 22 -16
22 12 -1 21 -10 36 -37 57 -20 15 -32 27 -27 27 6 0 19 -7 30 -15 24 -18 34
-19 34 -2 0 8 -10 19 -22 26 l-23 11 23 -6 c12 -3 22 -1 22 3 0 5 -39 22 -87
37 -120 39 -121 39 -93 22 14 -8 32 -16 40 -16 8 -1 33 -10 55 -21 22 -10 30
-17 19 -14 -12 3 -36 7 -53 10 -37 4 -91 35 -91 52 0 7 -10 18 -22 24 -13 7
-50 33 -83 58 -33 26 -77 54 -97 63 -21 10 -56 31 -79 48 -23 16 -48 30 -56
30 -7 0 -24 7 -37 16 -22 14 -54 22 -99 23 -10 1 -16 4 -14 9 3 4 -9 7 -27 8
-61 1 -208 86 -192 112 2 4 -4 19 -15 32 -12 15 -17 18 -13 8z"/>
<path d="M1090 1704 c-70 -41 -84 -62 -20 -29 21 11 28 12 25 3 -9 -23 -69
-56 -140 -78 -264 -80 -336 -107 -349 -129 -3 -5 11 -3 32 5 20 7 49 13 63 14
15 0 46 7 69 15 23 8 69 19 102 25 108 17 167 53 244 148 22 27 33 33 56 30
24 -4 28 -1 28 19 0 34 -24 29 -110 -23z"/>
<path d="M2906 1719 c16 -18 93 -59 111 -59 4 0 -22 18 -56 40 -70 45 -83 50
-55 19z"/>
<path d="M1132 1645 c-18 -8 -61 -39 -95 -70 -90 -80 -149 -103 -360 -140 -49
-8 -110 -26 -136 -40 -27 -13 -70 -27 -97 -31 -63 -10 -186 -6 -199 7 -5 5
-15 9 -23 9 -12 0 -12 -3 -2 -15 9 -11 11 -37 7 -93 -4 -42 -3 -149 2 -237 8
-131 17 -191 50 -330 51 -217 71 -312 72 -350 1 -24 3 -26 6 -7 7 33 -23 220
-56 357 -16 66 -34 152 -40 192 -13 86 -15 303 -2 303 5 0 31 15 57 33 59 41
259 121 336 136 69 12 209 53 263 75 22 10 72 42 111 71 82 63 137 89 170 81
22 -6 23 -5 13 21 -9 25 -26 43 -39 42 -3 0 -20 -6 -38 -14z m-812 -350 c-33
-19 -60 -19 -60 0 0 11 11 15 43 15 41 -1 42 -1 17 -15z m-50 -39 c0 -3 -4 -8
-10 -11 -5 -3 -10 -1 -10 4 0 6 5 11 10 11 6 0 10 -2 10 -4z"/>
<path d="M1860 1340 c0 -5 7 -10 15 -10 8 0 15 5 15 10 0 6 -7 10 -15 10 -8 0
-15 -4 -15 -10z"/>
<path d="M2276 1323 c-6 -14 -5 -15 5 -6 7 7 10 15 7 18 -3 3 -9 -2 -12 -12z"/>
<path d="M2309 1313 c-13 -16 -12 -17 4 -4 9 7 17 15 17 17 0 8 -8 3 -21 -13z"/>
<path d="M2259 1263 c-13 -16 -12 -17 4 -4 9 7 17 15 17 17 0 8 -8 3 -21 -13z"/>
<path d="M1115 1264 c-57 -7 -140 -25 -182 -41 -37 -13 -42 -20 -53 -61 -36
-144 -44 -317 -16 -370 16 -30 91 -101 132 -125 12 -7 35 -20 51 -29 l30 -17
87 66 c122 92 140 121 144 242 4 106 -12 309 -25 321 -10 9 -126 18 -168 14z
m140 -26 c18 -8 25 -19 25 -40 0 -17 -4 -27 -10 -23 -5 3 -10 1 -10 -4 0 -6 6
-11 14 -11 15 0 26 -99 26 -224 -1 -92 -29 -163 -59 -146 -14 7 -22 7 -26 0
-4 -6 -1 -9 6 -8 6 2 13 -2 16 -8 2 -8 -22 -12 -74 -13 -43 -1 -94 -4 -113 -7
-19 -2 -53 -5 -75 -5 l-40 -1 35 -7 c26 -4 35 -11 35 -25 0 -11 7 -21 15 -23
9 -3 11 -1 5 4 -5 4 -11 16 -11 26 -1 13 6 17 30 18 17 1 43 3 59 5 15 1 25
-1 22 -7 -4 -5 -1 -9 4 -9 6 0 11 4 11 9 0 11 56 20 71 11 7 -5 -3 -18 -27
-36 -22 -16 -41 -32 -44 -35 -3 -3 -19 -14 -36 -24 l-32 -18 -61 38 c-34 20
-69 48 -77 61 -9 13 -20 21 -25 18 -5 -3 -18 14 -29 38 -25 56 -26 163 -1 281
20 94 25 107 34 82 4 -8 2 -15 -3 -15 -6 0 -9 -12 -9 -27 2 -24 2 -25 6 -5 2
12 9 22 14 22 5 0 9 16 9 35 0 19 4 35 9 35 4 0 6 -11 4 -24 -3 -13 0 -27 6
-30 6 -4 11 -2 11 4 0 6 5 8 12 4 7 -4 8 -3 4 5 -4 6 -12 9 -17 5 -6 -3 -5 4
3 15 11 18 14 19 16 6 2 -9 10 -14 17 -11 8 3 18 -7 25 -25 7 -16 15 -28 17
-25 2 2 -2 18 -11 34 -14 27 -14 31 0 36 9 3 14 13 11 20 -11 29 45 30 89 1
26 -17 30 -30 14 -40 -5 -3 -10 -11 -10 -18 0 -14 29 24 30 40 0 6 -15 20 -32
32 l-33 21 67 0 c37 0 79 -5 93 -12z"/>
<path d="M1250 1221 c0 -6 4 -13 10 -16 6 -3 7 1 4 9 -7 18 -14 21 -14 7z"/>
<path d="M1080 1210 c0 -5 7 -10 15 -10 8 0 15 5 15 10 0 6 -7 10 -15 10 -8 0
-15 -4 -15 -10z"/>
<path d="M1051 1184 c0 -11 3 -14 6 -6 3 7 2 16 -1 19 -3 4 -6 -2 -5 -13z"/>
<path d="M1077 1149 c4 -13 8 -18 11 -10 2 7 -1 18 -6 23 -8 8 -9 4 -5 -13z"/>
<path d="M1116 1124 c-11 -28 -5 -108 9 -139 11 -23 13 -24 7 -5 -4 14 -7 55
-7 93 0 37 -1 67 -1 67 -1 0 -5 -7 -8 -16z"/>
<path d="M1091 1054 c1 -32 4 -70 9 -84 4 -14 5 11 2 55 -6 95 -12 113 -11 29z"/>
<path d="M1041 1034 c0 -11 3 -14 6 -6 3 7 2 16 -1 19 -3 4 -6 -2 -5 -13z"/>
<path d="M1037 926 c-4 -10 -5 -21 -2 -24 9 -9 17 6 13 25 -3 17 -4 17 -11 -1z"/>
<path d="M1000 901 c0 -6 4 -13 10 -16 6 -3 7 1 4 9 -7 18 -14 21 -14 7z"/>
<path d="M1135 890 c-11 -5 -49 -13 -85 -19 -36 -5 -48 -9 -27 -7 37 2 37 2
37 -36 0 -27 -4 -38 -15 -38 -8 0 -15 -4 -15 -8 0 -4 28 -5 63 -2 34 4 72 6
85 5 19 -1 22 3 18 22 -4 12 -2 25 4 28 20 12 9 33 -21 39 -17 3 -28 10 -24
16 7 12 7 12 -20 0z m53 -32 c6 2 12 -2 12 -8 0 -5 -5 -10 -11 -10 -6 0 -9 -9
-6 -20 4 -14 0 -20 -11 -20 -10 0 -28 -3 -41 -7 -20 -5 -23 -3 -18 10 4 10 2
17 -3 17 -6 0 -10 -7 -10 -15 0 -8 -7 -15 -15 -15 -10 0 -15 10 -15 34 0 29 4
34 33 43 21 7 39 6 52 -1 11 -5 26 -9 33 -8z"/>
<path d="M1126 855 c-9 -26 -7 -32 5 -12 6 10 9 21 6 23 -2 3 -7 -2 -11 -11z"/>
<path d="M1016 841 c-17 -6 -17 -8 -4 -14 10 -3 19 0 22 9 3 8 4 14 3 13 -1 0
-11 -4 -21 -8z"/>
<path d="M997 796 c-4 -9 -11 -14 -17 -11 -5 3 -10 2 -10 -3 0 -11 38 -23 44
-14 2 4 0 16 -4 26 -6 18 -7 18 -13 2z"/>
<path d="M1710 1195 c0 -2 15 -12 33 -20 l32 -16 -25 20 c-24 20 -40 26 -40
16z"/>
<path d="M1780 1154 c0 -10 192 -95 203 -90 8 3 7 5 -1 5 -8 1 -27 10 -43 22
-16 11 -29 18 -29 15 0 -3 -29 8 -65 24 -36 16 -65 27 -65 24z"/>
<path d="M3708 685 c-48 -106 -90 -205 -93 -221 -3 -16 9 5 28 46 19 41 62
133 96 204 34 70 61 136 59 145 -2 10 -42 -69 -90 -174z"/>
<path d="M2830 618 c0 -19 20 -47 20 -29 0 11 3 11 17 0 10 -8 14 -9 10 -2 -4
6 -3 14 3 18 20 12 10 25 -20 25 -17 0 -30 -5 -30 -12z"/>
<path d="M2908 594 c3 -19 7 -22 13 -12 8 11 10 11 18 0 6 -11 10 -10 15 3 8
23 -1 35 -28 35 -20 0 -22 -4 -18 -26z"/>
<path d="M2770 596 c0 -7 8 -16 18 -18 12 -4 18 1 18 13 0 12 -7 19 -18 19
-10 0 -18 -6 -18 -14z"/>
<path d="M2987 569 c-4 -15 -2 -18 7 -10 7 6 16 8 19 4 4 -3 7 1 7 10 0 24
-27 21 -33 -4z"/>
<path d="M2955 530 c3 -5 8 -10 11 -10 2 0 4 5 4 10 0 6 -5 10 -11 10 -5 0 -7
-4 -4 -10z"/>
<path d="M1046 509 l-26 -20 25 -50 c16 -30 30 -47 37 -43 6 4 8 3 4 -4 -3 -6
-1 -22 5 -35 8 -18 18 -24 36 -22 50 5 55 50 5 50 -23 -1 -30 3 -29 16 1 10 5
15 9 13 4 -3 8 0 8 7 0 7 7 4 15 -7 9 -10 1 11 -17 48 -18 37 -36 68 -39 68
-4 0 -18 -9 -33 -21z m107 -150 c-8 -8 -16 -8 -30 1 -15 10 -15 11 -1 6 10 -3
20 -1 24 5 3 6 9 8 12 4 3 -3 1 -10 -5 -16z"/>
<path d="M2876 519 c3 -5 17 -9 32 -9 43 -1 104 -34 145 -78 20 -23 37 -47 37
-54 0 -6 3 -8 6 -5 13 12 -49 88 -91 113 -42 24 -139 49 -129 33z"/>
<path d="M2772 503 c-68 -33 -123 -124 -109 -180 3 -10 5 -4 6 15 3 83 69 154
161 173 34 7 34 7 5 8 -16 0 -45 -7 -63 -16z"/>
<path d="M2770 460 c-6 -11 -15 -18 -19 -15 -5 2 -14 -1 -20 -8 -8 -10 -7 -14
5 -14 9 0 23 10 32 23 l17 22 34 -31 35 -32 -30 37 c-34 43 -40 45 -54 18z"/>
<path d="M2950 476 c0 -2 7 -7 16 -10 8 -3 12 -2 9 4 -6 10 -25 14 -25 6z"/>
<path d="M2979 443 c-12 -16 -12 -17 1 -7 11 8 20 5 36 -12 12 -13 20 -25 17
-28 -3 -3 2 -8 11 -12 9 -3 13 -11 9 -17 -4 -6 -1 -7 7 -2 10 6 10 10 -2 19
-8 6 -15 13 -15 16 1 3 -11 17 -25 33 -24 25 -26 26 -39 10z"/>
<path d="M961 431 l-24 -19 21 -36 c12 -21 22 -45 22 -54 0 -11 3 -13 8 -5 4
6 21 13 39 15 l32 3 -27 57 c-15 32 -31 58 -37 58 -5 0 -21 -9 -34 -19z"/>
<path d="M2783 423 c-16 -6 -57 -72 -49 -80 3 -4 6 -1 6 7 0 9 3 10 13 2 10
-8 19 -3 40 23 20 25 23 35 14 43 -7 5 -17 7 -24 5z"/>
<path d="M2939 413 c-13 -16 -12 -17 4 -4 16 13 21 21 13 21 -2 0 -10 -8 -17
-17z"/>
<path d="M3595 390 c-4 -23 -5 -43 -2 -46 2 -3 7 14 11 37 4 23 5 44 2 46 -2
2 -7 -14 -11 -37z"/>
<path d="M2700 388 c-10 -21 -10 -21 3 -6 8 10 18 14 22 10 5 -4 5 -1 1 6 -10
17 -14 15 -26 -10z"/>
<path d="M2971 397 c-9 -11 -7 -17 6 -28 16 -13 17 -12 5 3 -8 10 -9 19 -3 22
5 3 19 -6 30 -20 12 -15 21 -22 21 -17 0 5 -11 19 -23 32 -20 18 -26 19 -36 8z"/>
<path d="M2873 380 c2 -8 10 -15 17 -15 7 0 15 7 17 15 4 13 3 13 -6 0 -10
-13 -12 -13 -22 0 -9 13 -10 13 -6 0z"/>
<path d="M880 354 l-34 -24 47 0 c46 0 47 1 36 23 -6 12 -12 23 -13 23 0 1
-17 -9 -36 -22z"/>
<path d="M2816 367 c-10 -8 -19 -30 -22 -57 -2 -25 -1 -39 2 -32 5 10 12 8 30
-9 35 -33 32 -59 -3 -28 l-28 24 24 -27 c14 -16 28 -28 33 -28 4 0 8 20 8 45
0 43 1 45 30 45 17 0 30 -4 30 -10 0 -5 -9 -10 -20 -10 -11 0 -20 -5 -20 -11
0 -6 9 -13 20 -16 11 -3 20 -9 20 -14 0 -5 -9 -9 -20 -9 -11 0 -20 -7 -20 -15
0 -19 17 -19 52 -1 19 10 30 11 34 4 10 -16 -25 -38 -58 -38 -15 0 -28 -4 -28
-10 0 -5 7 -7 15 -4 9 4 23 -4 35 -19 25 -31 65 -40 82 -18 12 15 11 15 -7 1
-19 -14 -19 -14 -6 3 8 10 20 16 27 13 7 -3 16 0 20 6 5 7 2 8 -6 3 -8 -5 -11
-3 -8 6 3 8 10 14 16 14 5 0 13 3 17 7 9 9 -17 5 -33 -6 -21 -13 -28 3 -13 27
8 12 10 19 6 15 -4 -4 -31 21 -60 55 -41 47 -51 65 -43 75 6 7 18 10 27 7 13
-5 13 -4 4 6 -10 10 -18 8 -38 -11 l-25 -24 -28 27 c-24 23 -31 25 -46 14z"/>
<path d="M3107 305 c3 -33 7 -62 9 -64 8 -9 2 85 -6 104 -5 12 -6 -4 -3 -40z"/>
<path d="M2970 340 c-9 -6 -10 -10 -3 -10 6 0 15 5 18 10 8 12 4 12 -15 0z"/>
<path d="M3060 339 c0 -5 5 -7 10 -4 6 3 10 8 10 11 0 2 -4 4 -10 4 -5 0 -10
-5 -10 -11z"/>
<path d="M2703 305 c0 -22 2 -30 4 -17 2 12 2 30 0 40 -3 9 -5 -1 -4 -23z"/>
<path d="M3083 280 c0 -30 2 -43 4 -27 2 15 2 39 0 55 -2 15 -4 2 -4 -28z"/>
<path d="M950 306 c0 -8 -12 -16 -27 -18 -14 -2 -28 -9 -31 -16 -3 -11 -1 -11
17 -1 28 18 51 -2 31 -26 -14 -17 -36 -20 -43 -5 -3 6 -4 5 -3 -2 1 -7 17 -14
34 -16 l32 -3 0 50 c0 28 -2 51 -5 51 -3 0 -5 -6 -5 -14z"/>
<path d="M1070 304 c0 -8 -4 -12 -10 -9 -5 3 -10 1 -10 -4 0 -6 5 -11 11 -11
7 0 9 -10 5 -25 -4 -14 -3 -25 2 -25 5 0 9 20 11 45 1 25 -1 45 -4 45 -3 0 -5
-7 -5 -16z"/>
<path d="M2681 304 c0 -11 3 -14 6 -6 3 7 2 16 -1 19 -3 4 -6 -2 -5 -13z"/>
<path d="M2721 304 c0 -11 3 -14 6 -6 3 7 2 16 -1 19 -3 4 -6 -2 -5 -13z"/>
<path d="M364 180 c0 -74 1 -105 3 -67 2 37 2 97 0 135 -2 37 -3 6 -3 -68z"/>
<path d="M3042 285 c0 -16 2 -22 5 -12 2 9 2 23 0 30 -3 6 -5 -1 -5 -18z"/>
<path d="M3582 280 c0 -19 2 -27 5 -17 2 9 2 25 0 35 -3 9 -5 1 -5 -18z"/>
<path d="M983 260 c0 -25 2 -35 4 -22 2 12 2 32 0 45 -2 12 -4 2 -4 -23z"/>
<path d="M1022 288 c-22 -22 -7 -69 23 -68 5 0 2 5 -7 11 -21 12 -23 40 -6 57
7 7 10 12 7 12 -3 0 -10 -5 -17 -12z"/>
<path d="M1110 285 c-22 -26 -8 -50 29 -50 31 0 34 3 37 33 4 29 2 32 -25 32
-16 0 -34 -7 -41 -15z m50 -20 c0 -18 -5 -25 -19 -25 -11 0 -23 5 -26 10 -11
18 3 40 25 40 15 0 20 -7 20 -25z"/>
<path d="M1200 281 c0 -12 3 -20 8 -20 18 3 32 -2 32 -12 0 -7 -10 -9 -26 -5
-17 5 -23 3 -19 -4 8 -14 38 -13 53 2 16 16 15 28 -2 28 -8 0 -22 7 -30 16
-15 14 -16 14 -16 -5z"/>
<path d="M2761 284 c0 -11 3 -14 6 -6 3 7 2 16 -1 19 -3 4 -6 -2 -5 -13z"/>
<path d="M813 275 c-20 -15 -13 -59 10 -63 9 -2 17 1 17 7 0 6 -6 10 -12 9 -7
-2 -14 7 -16 20 -3 18 1 22 21 22 14 0 28 -6 30 -12 3 -7 6 -4 6 7 1 23 -30
28 -56 10z"/>
<path d="M2662 270 c0 -14 2 -19 5 -12 2 6 2 18 0 25 -3 6 -5 1 -5 -13z"/>
<path d="M850 230 c0 -5 5 -10 10 -10 6 0 10 5 10 10 0 6 -4 10 -10 10 -5 0
-10 -4 -10 -10z"/>
<path d="M3566 184 c-4 -31 -5 -59 -2 -61 2 -3 8 21 11 52 4 31 5 58 3 61 -3
2 -8 -21 -12 -52z"/>
<path d="M2720 217 c0 -2 6 -10 14 -16 11 -9 16 -9 22 1 4 7 4 10 -1 6 -4 -4
-14 -3 -22 3 -7 6 -13 9 -13 6z"/>
<path d="M2740 166 c19 -21 44 -42 55 -48 11 -6 18 -9 15 -6 -3 2 -27 24 -55
48 -48 42 -48 42 -15 6z"/>
<path d="M3090 192 c0 -6 -14 -28 -32 -49 -29 -34 -29 -35 -4 -13 31 28 50 59
42 68 -3 3 -6 0 -6 -6z"/>
<path d="M2700 173 c0 -5 12 -20 28 -34 l27 -24 -25 30 c-14 17 -26 32 -27 34
-2 2 -3 0 -3 -6z"/>
<path d="M3551 95 c-1 -11 -4 -31 -6 -45 l-6 -25 11 25 c6 13 9 33 7 45 -4 19
-4 19 -6 0z"/>
<path d="M2797 89 c7 -7 15 -10 18 -7 3 3 -2 9 -12 12 -14 6 -15 5 -6 -5z"/>
<path d="M2858 93 c7 -3 16 -2 19 1 4 3 -2 6 -13 5 -11 0 -14 -3 -6 -6z"/>
<path d="M2893 63 c9 -2 25 -2 35 0 9 3 1 5 -18 5 -19 0 -27 -2 -17 -5z"/>
</g>
</svg>
