<?xml version="1.0" standalone="no"?>
<!DOCTYPE svg PUBLIC "-//W3C//DTD SVG 20010904//EN"
 "http://www.w3.org/TR/2001/REC-SVG-20010904/DTD/svg10.dtd">
<svg version="1.0" xmlns="http://www.w3.org/2000/svg"
 width="332.000000pt" height="498.000000pt" viewBox="0 0 332.000000 498.000000"
 preserveAspectRatio="xMidYMid meet">

<g transform="translate(0.000000,498.000000) scale(0.100000,-0.100000)"
fill="#000000" stroke="none">
<path d="M1475 4461 c-16 -4 -66 -14 -110 -21 -126 -19 -290 -87 -379 -157
-34 -26 -56 -54 -72 -91 -13 -29 -18 -49 -12 -46 7 4 2 -7 -11 -24 -12 -18
-24 -42 -25 -55 -2 -12 -8 -35 -15 -50 -6 -16 -11 -34 -11 -42 0 -7 -11 -26
-24 -42 -37 -44 -54 -85 -57 -135 -2 -26 -1 -50 2 -52 3 -3 1 -45 -3 -93 -8
-87 -6 -142 7 -196 6 -24 5 -28 -11 -27 -41 5 -42 3 -37 -80 3 -45 1 -105 -6
-141 -16 -78 -17 -221 -2 -275 6 -23 28 -60 49 -83 44 -49 88 -65 125 -46 l25
13 16 -87 c26 -149 29 -196 21 -407 -7 -204 -7 -206 -31 -216 -16 -7 -28 -25
-34 -49 -14 -50 -58 -85 -143 -114 -36 -12 -105 -49 -154 -82 -48 -33 -135
-85 -193 -117 -57 -32 -145 -86 -196 -121 -50 -34 -115 -75 -143 -90 l-51 -28
0 -754 0 -753 565 0 565 0 0 285 c0 312 -17 1072 -25 1121 -4 23 -17 39 -48
59 -72 48 -137 106 -176 159 -41 55 -71 109 -71 126 0 17 94 -2 174 -35 17 -7
18 -5 12 18 -9 37 12 35 50 -4 30 -32 145 -114 201 -143 44 -22 67 -21 54 1
-12 23 -11 34 2 58 6 11 10 24 9 28 -1 5 8 5 20 1 13 -4 30 -6 38 -6 8 1 31 3
50 4 28 2 34 7 32 22 -2 10 1 15 6 12 10 -6 27 22 23 38 -1 5 5 6 14 3 9 -4
15 -1 15 7 0 15 27 30 48 27 10 -2 14 10 11 35 0 7 41 44 50 44 3 0 12 4 20 9
13 8 13 12 0 27 -8 10 -9 15 -3 11 7 -4 15 0 18 9 3 8 9 13 14 10 4 -2 14 -1
22 5 12 7 9 9 -10 9 l-24 0 22 16 c12 8 27 12 32 9 6 -3 10 -2 10 4 0 6 6 8
14 5 10 -4 13 0 9 14 -4 16 2 21 31 26 20 4 34 11 31 17 -4 5 0 9 7 9 7 0 22
13 33 29 11 17 21 28 24 26 2 -3 21 13 42 34 21 21 45 41 54 45 8 3 20 17 25
30 5 14 17 34 27 44 35 37 51 60 46 66 -7 7 22 76 52 126 12 19 25 46 28 60 4
14 18 38 32 54 14 16 25 37 25 46 0 9 4 20 9 26 5 5 11 29 13 54 2 25 7 50 11
57 4 6 9 37 12 68 3 32 9 63 13 69 7 9 9 99 3 140 -3 21 -30 -31 -31 -57 0
-16 -10 -43 -22 -60 -12 -17 -16 -27 -9 -23 10 6 12 3 7 -13 -3 -11 -9 -30
-12 -41 -3 -11 -9 -20 -14 -20 -4 0 -8 -10 -8 -22 -1 -19 -5 -58 -11 -100 -1
-5 -6 -8 -12 -8 -6 0 -8 9 -4 23 5 20 5 20 -6 4 -8 -14 -8 -22 0 -30 13 -13
14 -27 3 -27 -11 0 -33 71 -25 83 9 16 -41 -4 -54 -21 -7 -9 -13 -26 -13 -39
0 -13 -5 -23 -10 -23 -6 0 -10 -6 -9 -12 3 -25 -1 -39 -10 -33 -13 8 -29 -24
-24 -46 7 -27 -16 -24 -28 4 -8 19 -9 19 -4 -7 5 -24 3 -27 -11 -22 -14 5 -15
4 -4 -9 14 -16 7 -45 -11 -45 -6 0 -9 6 -6 14 3 8 0 22 -7 32 -13 16 -15 15
-32 -17 -10 -19 -17 -37 -16 -41 1 -5 -5 -8 -14 -8 -21 0 -42 -22 -36 -39 3
-8 0 -11 -6 -7 -7 4 -16 -10 -23 -39 -8 -32 -16 -45 -25 -41 -8 3 -13 2 -13
-2 3 -18 -2 -24 -13 -14 -20 16 -57 -3 -51 -26 3 -12 -2 -22 -12 -26 -9 -3
-14 -2 -11 3 3 5 -2 15 -11 22 -14 12 -15 11 -8 -9 6 -22 5 -23 -14 -13 -12 7
-21 21 -21 31 0 11 -4 20 -10 20 -5 0 -10 -7 -10 -15 0 -21 -36 -19 -44 2 -5
13 -9 14 -15 5 -13 -22 -42 -2 -39 26 3 23 0 26 -35 27 -24 0 -44 7 -51 18 -7
9 -16 15 -20 12 -3 -3 -1 1 4 8 13 14 99 17 97 3 -1 -6 9 -12 23 -14 14 -2 29
-7 34 -12 4 -4 21 -4 37 2 23 8 29 16 29 38 0 15 7 33 15 40 8 7 15 17 15 22
0 6 -7 5 -16 -2 -13 -11 -16 -10 -21 8 -5 22 -12 25 -69 37 -18 3 -49 21 -70
40 -45 39 -53 37 107 35 98 -1 110 1 170 29 35 17 69 31 74 31 6 0 21 -12 34
-25 13 -14 28 -25 33 -25 6 0 8 -9 5 -20 -3 -11 0 -23 5 -27 7 -3 8 -1 4 5 -4
7 -4 12 1 12 4 0 9 36 10 79 2 67 -1 81 -17 96 -11 10 -26 15 -35 11 -9 -3
-18 1 -22 10 -3 8 -11 13 -19 10 -7 -3 -18 2 -24 9 -7 8 -16 12 -21 9 -5 -3
-9 4 -9 15 0 11 -5 23 -12 27 -8 5 -9 2 -5 -9 3 -10 2 -17 -2 -17 -5 0 -11 7
-15 15 -5 15 -62 15 -98 0 -19 -8 -24 10 -10 32 11 17 61 34 103 35 48 0 49
31 1 36 -33 3 -112 -39 -112 -60 0 -6 -10 -2 -23 10 -13 12 -29 22 -35 22 -6
0 -19 16 -27 37 -12 29 -13 47 -5 92 5 31 12 90 15 131 2 41 7 100 11 130 10
96 8 117 -17 138 -11 9 -30 25 -41 35 -12 9 -25 17 -30 17 -5 0 -7 4 -4 9 15
24 -75 61 -100 40 -11 -9 -14 -9 -14 0 0 7 -5 9 -11 5 -8 -4 -8 -1 -1 12 7 14
5 24 -9 38 -11 11 -19 15 -19 10 0 -6 6 -16 12 -22 10 -10 10 -15 -2 -22 -25
-16 -28 -12 -20 32 5 23 6 49 3 57 -5 13 -3 14 8 4 17 -17 37 -17 21 -1 -7 7
-12 18 -12 26 0 11 3 12 14 3 12 -10 13 -8 9 9 -3 11 -16 23 -29 26 -21 5 -22
8 -9 21 8 8 20 23 25 33 8 15 5 20 -15 27 -19 6 -22 12 -15 23 9 13 11 13 20
0 5 -8 10 -12 10 -8 0 12 -23 58 -29 58 -3 0 -6 18 -6 39 0 32 7 45 30 65 38
33 106 56 164 56 25 0 71 6 102 13 67 16 216 14 248 -3 13 -6 43 -12 67 -13
25 0 44 -5 44 -11 0 -6 5 -3 11 6 9 16 11 16 30 0 127 -108 157 -179 173 -417
2 -33 13 -84 25 -113 14 -35 21 -75 21 -120 0 -37 5 -94 10 -127 26 -152 37
-200 46 -197 5 1 9 10 9 20 1 9 4 23 9 30 5 8 4 18 -3 25 -20 20 -12 48 23 82
34 33 68 84 47 71 -11 -7 -9 53 3 73 15 23 15 106 0 178 -16 74 -15 146 3 251
8 46 6 61 -14 110 -13 31 -26 75 -29 97 -8 50 -22 78 -36 69 -6 -4 -8 -3 -4 4
3 5 -5 19 -20 29 -14 10 -26 25 -27 33 -1 9 -10 26 -20 40 -10 14 -31 44 -48
68 -16 24 -50 55 -75 70 -31 19 -44 32 -41 44 4 14 1 15 -21 7 -15 -6 -23 -7
-19 -3 10 11 -44 44 -72 44 -13 0 -48 14 -78 30 -29 17 -61 30 -71 30 -10 0
-22 3 -26 7 -4 4 -22 9 -39 10 -18 0 -72 4 -122 7 -49 3 -103 2 -120 -3z
m-165 -710 c-6 -12 -18 -21 -27 -21 -13 0 -14 2 -2 18 29 36 49 39 29 3z m-46
-174 c11 -10 10 -15 -1 -26 -8 -7 -17 -10 -21 -6 -4 4 -1 10 6 12 19 7 4 23
-16 17 -14 -5 -15 -4 -2 5 19 14 19 14 34 -2z m134 -255 c2 -12 12 -27 23 -32
22 -12 25 -41 7 -73 -6 -12 -13 -42 -14 -66 -7 -103 -87 -271 -166 -346 -29
-27 -47 -43 -40 -34 6 9 9 19 6 22 -4 3 -8 21 -9 39 -3 40 -21 88 -34 88 -5 0
-12 10 -16 23 -11 32 -13 39 -14 70 -1 20 -5 26 -13 21 -9 -5 -9 -2 1 9 12 15
9 21 -11 18 -5 0 -8 15 -8 36 0 35 -1 35 -19 19 -16 -15 -19 -15 -24 -2 -4 9
0 21 7 29 7 7 17 24 21 37 l7 25 -27 -25 c-31 -27 -25 -9 9 28 19 22 78 53 94
51 23 -4 42 2 37 11 -3 6 1 17 10 26 13 14 21 15 41 5 53 -24 104 -9 104 32 0
26 24 16 28 -11z m188 -589 c-4 -19 -2 -23 6 -15 6 6 17 8 24 5 8 -3 14 0 14
6 0 16 46 13 64 -4 9 -9 17 -11 21 -5 3 5 11 10 16 10 6 0 7 -5 3 -11 -4 -7 1
-7 15 1 15 8 26 8 34 1 7 -5 25 -8 39 -7 34 4 45 -20 15 -30 -35 -12 -216 -8
-279 5 -38 8 -58 17 -58 27 0 8 7 14 15 14 8 0 15 -5 15 -10 0 -7 6 -7 20 0
11 6 20 17 20 25 0 8 5 15 10 15 6 0 8 -12 6 -27z m-29 -79 c-3 -3 -12 -4 -19
-1 -8 3 -5 6 6 6 11 1 17 -2 13 -5z m93 -5 c0 -5 -15 -9 -32 -9 -20 0 -28 3
-21 8 18 11 53 12 53 1z m50 1 c0 -5 -8 -10 -17 -10 -15 0 -16 2 -3 10 19 12
20 12 20 0z m-130 -160 c0 -5 -2 -10 -4 -10 -3 0 -8 5 -11 10 -3 6 -1 10 4 10
6 0 11 -4 11 -10z m-1347 -1060 c6 -162 18 -275 56 -505 5 -33 12 -114 14
-180 l5 -120 -13 85 c-7 47 -14 111 -14 142 -1 31 -7 87 -15 125 -33 159 -64
516 -51 598 3 26 8 45 9 43 2 -1 6 -86 9 -188z m777 -668 c0 -5 -51 -35 -112
-67 -62 -32 -172 -91 -245 -132 -149 -82 -190 -92 -219 -48 -20 31 -13 91 18
147 28 49 37 48 31 -1 -5 -33 -2 -41 19 -55 30 -20 31 -19 308 88 223 86 200
78 200 68z m-693 -224 c-3 -7 -5 -2 -5 12 0 14 2 19 5 13 2 -7 2 -19 0 -25z
m2 -163 c0 -5 -6 -1 -14 9 -8 11 -15 27 -15 35 1 17 29 -26 29 -44z"/>
<path d="M1183 3228 c21 -7 32 -7 40 1 8 8 0 11 -28 10 -40 -1 -40 -1 -12 -11z"/>
<path d="M1863 3466 c-11 -18 -35 -25 -55 -15 -14 8 -16 4 -15 -18 2 -23 -4
-31 -30 -42 -19 -9 -36 -26 -42 -43 -10 -27 -9 -28 21 -28 25 0 28 -2 18 -15
-15 -18 -5 -35 20 -35 11 0 20 9 23 23 l4 22 8 -23 c13 -39 99 -44 119 -7 6
11 12 22 13 24 2 2 11 -3 20 -11 28 -23 53 -30 46 -12 -7 18 -75 54 -102 54
-11 0 -23 5 -26 10 -9 15 37 12 76 -4 19 -8 43 -24 53 -35 11 -12 24 -21 29
-21 20 0 -39 52 -85 76 -27 13 -48 26 -48 28 0 3 19 3 43 1 23 -1 48 2 55 7 8
7 16 7 25 0 6 -5 23 -13 35 -17 22 -6 23 -5 13 14 -7 12 -16 21 -22 21 -6 0
-7 -4 -4 -10 3 -5 2 -10 -4 -10 -5 0 -9 9 -8 19 1 12 7 17 17 14 8 -3 0 5 -19
17 -19 12 -42 19 -53 17 -10 -3 -18 -1 -18 4 0 15 -98 11 -107 -5z m152 -16
c-3 -5 -10 -10 -16 -10 -5 0 -9 5 -9 10 0 6 7 10 16 10 8 0 12 -4 9 -10z"/>
<path d="M1630 2424 c0 -8 5 -12 10 -9 6 3 10 10 10 16 0 5 -4 9 -10 9 -5 0
-10 -7 -10 -16z"/>
<path d="M2137 2086 c-4 -10 -1 -16 8 -16 8 0 19 -8 24 -17 6 -10 10 -13 10
-8 1 6 -8 21 -18 34 -15 20 -19 21 -24 7z"/>
<path d="M2314 1971 c26 -27 28 -35 22 -77 -13 -99 -139 -294 -246 -380 l-70
-56 0 -92 c0 -50 5 -147 10 -216 5 -69 13 -255 19 -415 6 -159 13 -348 16
-420 2 -72 5 -172 5 -222 l0 -93 380 0 379 0 17 56 c9 31 22 109 28 173 7 64
19 126 26 138 12 18 12 30 2 68 -15 55 -16 181 -2 190 6 4 10 -23 10 -74 0
-45 5 -100 12 -125 10 -39 9 -46 -10 -71 -18 -23 -22 -41 -22 -104 0 -69 -8
-117 -39 -218 l-10 -33 240 0 239 0 0 759 0 759 -47 17 c-122 44 -163 60 -223
87 -68 32 -79 37 -148 76 -24 13 -45 23 -47 21 -2 -2 3 -30 12 -62 8 -33 12
-61 9 -65 -10 -9 -18 6 -26 50 -15 80 -27 98 -77 120 -102 44 -170 80 -215
112 -26 19 -77 44 -113 56 -36 12 -87 33 -113 47 l-47 25 29 -31z m600 -428
c11 -29 7 -463 -6 -568 -6 -55 -12 -118 -13 -140 -1 -22 -3 -53 -4 -70 l-3
-30 -9 30 c-4 16 -6 38 -4 50 18 86 34 505 25 658 -5 83 0 107 14 70z m-389
-600 c49 3 78 1 97 -9 15 -8 47 -16 70 -17 47 -4 48 -7 30 -77 -10 -41 6 -126
33 -166 12 -19 14 -29 6 -37 -6 -6 -11 -31 -11 -56 0 -88 -54 -141 -144 -141
-29 0 -61 -6 -73 -15 -19 -13 -23 -13 -46 5 -14 11 -34 20 -45 20 -32 0 -103
29 -139 56 -40 30 -60 67 -69 125 -4 24 -11 49 -16 55 -5 8 -1 24 11 45 33 57
36 102 11 154 -12 25 -19 49 -16 53 4 3 26 5 49 4 23 -1 58 4 77 11 29 11 41
10 70 -1 24 -10 57 -13 105 -9z"/>
<path d="M2360 932 c-8 -4 -15 -20 -15 -37 0 -29 -2 -30 -39 -27 -33 3 -38 1
-32 -13 3 -9 6 -23 6 -31 0 -10 12 -14 40 -14 38 0 40 -2 40 -30 0 -26 3 -30
29 -30 25 0 28 3 24 24 -3 14 2 39 10 55 15 30 11 41 -8 21 -7 -6 -10 8 -10
38 0 48 -12 59 -45 44z"/>
<path d="M2510 910 c0 -5 5 -10 10 -10 6 0 10 5 10 10 0 6 -4 10 -10 10 -5 0
-10 -4 -10 -10z"/>
<path d="M2480 840 c0 -14 -7 -20 -21 -20 -13 0 -18 4 -13 12 4 7 3 8 -4 4
-22 -13 -12 -26 18 -26 25 0 30 4 30 25 0 14 -2 25 -5 25 -3 0 -5 -9 -5 -20z"/>
<path d="M2571 784 c0 -11 3 -14 6 -6 3 7 2 16 -1 19 -3 4 -6 -2 -5 -13z"/>
<path d="M2521 754 c0 -11 3 -14 6 -6 3 7 2 16 -1 19 -3 4 -6 -2 -5 -13z"/>
<path d="M2662 740 c0 -14 2 -19 5 -12 2 6 2 18 0 25 -3 6 -5 1 -5 -13z"/>
<path d="M2396 731 c-4 -5 -2 -20 3 -33 9 -21 12 -18 15 15 1 6 6 15 11 19 6
5 3 8 -7 8 -9 0 -19 -4 -22 -9z"/>
<path d="M2470 706 c0 -25 25 -43 35 -26 4 6 -1 10 -9 10 -22 0 -20 27 2 33
13 4 11 5 -5 6 -18 1 -23 -4 -23 -23z"/>
<path d="M2550 700 c0 -25 4 -30 25 -30 28 0 28 0 15 34 -14 37 -40 34 -40 -4z"/>
<path d="M2253 635 c14 -88 85 -146 203 -165 142 -23 230 -5 260 53 16 30 22
93 10 105 -15 14 -162 32 -315 38 l-164 7 6 -38z m293 -26 c36 -30 13 -99 -33
-99 -29 0 -73 41 -73 69 0 39 71 59 106 30z"/>
<path d="M1920 1408 c-126 -63 -214 -82 -370 -82 -148 1 -267 23 -369 69 -29
14 -55 25 -57 25 -2 0 -2 -30 1 -67 10 -127 25 -767 25 -1045 l0 -278 50 0
c38 0 50 -4 50 -15 0 -13 42 -15 319 -15 203 0 322 4 326 10 8 13 82 13 90 0
3 -6 20 -10 36 -10 l30 0 -2 208 c-3 289 -38 1123 -52 1222 -2 12 -18 7 -77
-22z"/>
</g>
</svg>
