<?xml version="1.0" standalone="no"?>
<!DOCTYPE svg PUBLIC "-//W3C//DTD SVG 20010904//EN"
 "http://www.w3.org/TR/2001/REC-SVG-20010904/DTD/svg10.dtd">
<svg version="1.0" xmlns="http://www.w3.org/2000/svg"
 width="96.000000pt" height="96.000000pt" viewBox="0 0 96.000000 96.000000"
 preserveAspectRatio="xMidYMid meet">

<g transform="translate(0.000000,96.000000) scale(0.100000,-0.100000)"
fill="#000000" stroke="none">
<path d="M428 861 c-81 -26 -140 -94 -153 -176 -4 -22 -14 -54 -23 -72 -14
-29 -14 -33 1 -57 10 -14 26 -26 37 -26 11 0 20 -4 20 -10 0 -5 -16 -10 -36
-10 -72 0 -74 -5 -74 -155 l0 -135 -30 0 c-28 0 -30 -2 -30 -38 0 -73 -3 -72
343 -72 305 0 306 0 321 22 9 12 16 37 16 55 0 30 -3 33 -30 33 l-30 0 0 135
c0 150 -2 155 -74 155 -20 0 -36 5 -36 10 0 6 9 10 20 10 11 0 27 12 37 26 15
24 15 28 1 57 -9 18 -19 50 -23 72 -10 60 -50 121 -99 150 -47 28 -116 39
-158 26z m52 -35 c0 -19 -41 -76 -70 -98 -14 -10 -42 -21 -63 -25 -33 -5 -37
-3 -37 15 0 27 56 91 95 108 39 17 75 17 75 0z m53 -22 c-6 -71 -95 -148 -187
-160 -42 -6 -46 -5 -46 15 0 17 6 21 35 21 20 0 53 9 75 20 40 20 90 82 90
111 0 20 10 31 24 26 6 -2 10 -17 9 -33z m113 -71 c19 -44 18 -93 -1 -93 -30
0 -84 29 -99 53 -14 21 -15 28 -3 58 8 19 17 43 21 53 6 18 9 17 38 -10 17
-16 37 -43 44 -61z m-50 -105 c34 -12 35 -13 32 -63 l-3 -50 -145 0 -145 0 -3
53 c-3 51 -3 52 25 52 31 0 95 29 132 58 l24 20 24 -29 c13 -15 40 -34 59 -41z
m-296 -43 c0 -26 -3 -33 -15 -29 -27 11 -19 53 13 63 1 1 2 -15 2 -34z m390 5
c0 -10 -7 -23 -15 -30 -13 -11 -15 -7 -15 23 0 28 3 35 15 31 8 -4 15 -14 15
-24z m48 -287 l2 -173 -260 0 -260 0 0 168 c0 93 3 172 7 176 4 3 119 5 257 4
l251 -3 3 -172z m-540 -136 c2 -15 -1 -27 -6 -27 -17 0 -34 29 -28 46 9 23 31
11 34 -19z m597 23 c10 -16 -5 -50 -21 -50 -8 0 -14 10 -14 23 0 34 21 50 35
27z"/>
<path d="M434 335 c-9 -14 -13 -32 -9 -45 15 -47 86 -50 107 -5 27 59 -62 105
-98 50z m71 -25 c0 -18 -6 -26 -23 -28 -13 -2 -25 3 -28 12 -10 26 4 48 28 44
17 -2 23 -10 23 -28z"/>
</g>
</svg>
